<svg xmlns="http://www.w3.org/2000/svg" width="381.322" height="194.802" viewBox="0 0 381.322 194.802"><g transform="translate(-277.249 -153.16)"><rect width="173" height="59" rx="29.5" transform="translate(629.071 290.756) rotate(-150)" fill="#0f9c58"/><path d="M25.9,1025.051a29.332,29.332,0,0,1-6.556-4.977,29.579,29.579,0,0,0,6.2,4.772l.353.2ZM13.088,1010.7a29.159,29.159,0,0,1-2.295-11.392,29.939,29.939,0,0,0,2.3,11.391ZM99.3,999.3h0L55.048,973.75a29.482,29.482,0,0,0-29.1-.229l98.33-56.77a29.5,29.5,0,1,1,29.5,51.1L99.3,999.3ZM13.734,986.464h0a29.245,29.245,0,0,1,6.028-8.353,29.555,29.555,0,0,0-5.01,6.437C14.391,985.171,14.049,985.815,13.734,986.464Z" transform="translate(658.571 1249.756) rotate(180)" fill="#fabb04"/><rect width="173" height="59" rx="29.5" transform="translate(306.749 210.367) rotate(30)" fill="#4284f3"/><path d="M25.9,1025.051a29.332,29.332,0,0,1-6.556-4.977,29.579,29.579,0,0,0,6.2,4.772l.353.2ZM13.088,1010.7a29.159,29.159,0,0,1-2.295-11.392,29.939,29.939,0,0,0,2.3,11.391ZM99.3,999.3h0L55.048,973.75a29.482,29.482,0,0,0-29.1-.229l98.33-56.77a29.5,29.5,0,1,1,29.5,51.1L99.3,999.3ZM13.734,986.464h0a29.245,29.245,0,0,1,6.028-8.353,29.555,29.555,0,0,0-5.01,6.437C14.391,985.171,14.049,985.815,13.734,986.464Z" transform="translate(277.249 -748.633)" fill="#e94335"/></g></svg>