<svg xmlns="http://www.w3.org/2000/svg" width="318.701" height="255.68" viewBox="0 0 318.701 255.68"><g transform="translate(-2545.787 -156.958)" opacity="0.5"><path d="M2829.552,662.232c-.19,1.156-.864,2.044-1.924,2.081a1.97,1.97,0,0,1-2.09-2.216,1.828,1.828,0,0,1,2.047-1.823c1.219.04,1.751.842,1.966,1.958" transform="translate(-139.955 -251.802)" fill="#0884ff"/><path d="M2619.469,159.26a1.715,1.715,0,0,1-1.874,1.935,1.814,1.814,0,0,1-2.036-1.823,1.955,1.955,0,0,1,2.12-2.177,1.8,1.8,0,0,1,1.79,2.065" transform="translate(-34.906 -0.117)" fill="#0884ff"/><path d="M2829.539,518.564a2.124,2.124,0,0,1-1.741,2.091,1.944,1.944,0,0,1-2.234-2.051,1.756,1.756,0,0,1,1.869-1.968c1.234-.035,1.854.616,2.106,1.927" transform="translate(-139.968 -179.942)" fill="#0884ff"/><path d="M2829.569,374.965c-.293,1.016-.757,2-1.945,1.973a1.916,1.916,0,0,1-1.958-2.273,1.764,1.764,0,0,1,2.047-1.746c1.321.05,1.627.968,1.856,2.046" transform="translate(-140.015 -108.042)" fill="#0884ff"/><path d="M2967.508,233.277c-1.288-.251-2.043-1.019-2.027-2.115a1.863,1.863,0,0,1,2.245-1.979,1.766,1.766,0,0,1,1.631,2.172,1.954,1.954,0,0,1-1.849,1.922" transform="translate(-209.968 -36.126)" fill="#0884ff"/><path d="M3039.557,158.989c-.075,1.47-.853,2.135-1.937,2.2a1.728,1.728,0,0,1-2.029-1.778,1.9,1.9,0,0,1,2.013-2.245,2.147,2.147,0,0,1,1.953,1.82" transform="translate(-245.04 -0.105)" fill="#0884ff"/><path d="M3177.612,156.958c.977.426,1.971.942,1.908,2.156a1.9,1.9,0,0,1-2.294,1.961c-1.266-.13-1.7-1-1.616-2.192.087-1.255.907-1.755,2-1.926" transform="translate(-315.088)" fill="#0884ff"/><path d="M2827.556,300.67a2.207,2.207,0,0,1,1.916,2.1,1.854,1.854,0,0,1-2.25,1.994,1.809,1.809,0,0,1-1.727-2.136,2.179,2.179,0,0,1,2.06-1.955" transform="translate(-139.927 -71.897)" fill="#0884ff"/><path d="M2687.3,372.915c1.616-.024,2.341.781,2.312,1.89a1.981,1.981,0,0,1-2.2,2.124,1.876,1.876,0,0,1-1.713-2.171c.09-1.182.647-1.974,1.6-1.843" transform="translate(-69.992 -108.033)" fill="#0884ff"/><path d="M2827.881,448.51a1.745,1.745,0,0,1-2.222-1.693,1.919,1.919,0,0,1,1.963-2.276,1.878,1.878,0,0,1,1.88,2c.011,1.026-.4,2.094-1.621,1.968" transform="translate(-140.011 -143.874)" fill="#0884ff"/><path d="M2687.645,233.251a1.9,1.9,0,0,1-1.9-1.979,1.747,1.747,0,0,1,1.721-2.091,1.86,1.86,0,0,1,2.162,2.069,2.058,2.058,0,0,1-1.982,2" transform="translate(-70.016 -36.129)" fill="#0884ff"/><path d="M3179.571,662.281a2.165,2.165,0,0,1-1.949,2.01,1.891,1.891,0,0,1-2-2.26,1.726,1.726,0,0,1,2.007-1.809,2.008,2.008,0,0,1,1.947,2.059" transform="translate(-315.094 -251.774)" fill="#0884ff"/><path d="M2549.755,374.822a2.232,2.232,0,0,1-1.848,2.107c-1.323.173-2.093-.7-2.085-2.093a1.657,1.657,0,0,1,1.861-1.882c1.216.013,1.783.73,2.072,1.867" transform="translate(-0.018 -108.06)" fill="#0884ff"/><path d="M2549.745,662.365c-.324,1.078-1,1.966-2.054,1.955-1.3-.013-1.986-.938-1.9-2.336a1.7,1.7,0,0,1,2.082-1.673,2.048,2.048,0,0,1,1.869,2.054" transform="translate(0 -251.816)" fill="#0884ff"/><path d="M2617.673,664.353a2.223,2.223,0,0,1-2.133-1.841,1.887,1.887,0,0,1,1.978-2.289,1.789,1.789,0,0,1,1.922,1.938,2.13,2.13,0,0,1-1.767,2.192" transform="translate(-34.881 -251.777)" fill="#0884ff"/><path d="M2689.667,662.179a2.145,2.145,0,0,1-1.751,2.125c-1.313.235-2.093-.666-2.163-2.01a1.7,1.7,0,0,1,1.808-1.955c1.227-.076,1.786.687,2.106,1.84" transform="translate(-70.021 -251.833)" fill="#0884ff"/><path d="M2757.618,664.456c-1.049-.4-2.028-.791-2.072-2.062a1.835,1.835,0,0,1,2.138-2.084,1.812,1.812,0,0,1,1.8,2.063c-.018,1.336-1.033,1.628-1.864,2.083" transform="translate(-104.939 -251.818)" fill="#0884ff"/><path d="M2897.55,664.428c-.984-.339-1.919-.723-1.974-2.013a1.8,1.8,0,0,1,1.754-2.1,1.831,1.831,0,0,1,2.175,2.039c-.015,1.289-1,1.669-1.955,2.07" transform="translate(-174.994 -251.821)" fill="#0884ff"/><path d="M2967.5,664.408a2.215,2.215,0,0,1-1.984-1.958,1.831,1.831,0,0,1,2.1-2.089,1.7,1.7,0,0,1,1.76,1.992,2.073,2.073,0,0,1-1.874,2.055" transform="translate(-209.982 -251.844)" fill="#0884ff"/><path d="M3037.395,664.359c-1.035-.373-1.8-.907-1.786-2.188a1.793,1.793,0,0,1,1.919-1.939,1.874,1.874,0,0,1,1.982,2.273,2.21,2.21,0,0,1-2.115,1.855" transform="translate(-245.052 -251.782)" fill="#0884ff"/><path d="M3107.438,664.406a2.3,2.3,0,0,1-2.021-1.943,1.864,1.864,0,0,1,2.1-2.12,1.694,1.694,0,0,1,1.788,1.976,2.077,2.077,0,0,1-1.866,2.088" transform="translate(-279.972 -251.837)" fill="#0884ff"/><path d="M2619.438,518.677a1.827,1.827,0,0,1-1.864,2.01,2.009,2.009,0,0,1-2.036-2.294,1.809,1.809,0,0,1,2.107-1.731,1.722,1.722,0,0,1,1.793,2.015" transform="translate(-34.891 -179.953)" fill="#0884ff"/><path d="M2549.728,159.276c-.237,1.1-.833,1.877-2,1.9a1.689,1.689,0,0,1-1.932-1.827,1.867,1.867,0,0,1,2.039-2.177,2.172,2.172,0,0,1,1.891,2.1" transform="translate(-0.005 -0.105)" fill="#0884ff"/><path d="M2687.7,161.179a1.722,1.722,0,0,1-1.945-1.817,1.893,1.893,0,0,1,1.684-2.172,1.956,1.956,0,0,1,2.184,2.065,1.832,1.832,0,0,1-1.923,1.924" transform="translate(-70.02 -0.11)" fill="#0884ff"/><path d="M2759.491,159.354a1.767,1.767,0,0,1-1.979,1.861,1.806,1.806,0,0,1-1.936-1.932,1.964,1.964,0,1,1,3.915.071" transform="translate(-104.955 -0.117)" fill="#0884ff"/><path d="M2829.545,159.245c-.246,1.233-.864,1.96-2.068,1.934a1.806,1.806,0,0,1-1.926-1.937,1.96,1.96,0,0,1,2.2-2.1,2.14,2.14,0,0,1,1.8,2.1" transform="translate(-139.962 -0.084)" fill="#0884ff"/><path d="M2899.5,159.071a1.835,1.835,0,0,1-1.788,2.08,1.758,1.758,0,0,1-2.13-1.659,1.991,1.991,0,0,1,1.94-2.371,1.956,1.956,0,0,1,1.977,1.95" transform="translate(-174.987 -0.08)" fill="#0884ff"/><path d="M2969.348,159.065c0,1.177-.444,1.992-1.687,2.1a1.883,1.883,0,0,1-2.187-1.652,1.987,1.987,0,0,1,1.908-2.347,1.856,1.856,0,0,1,1.966,1.895" transform="translate(-209.949 -0.102)" fill="#0884ff"/><path d="M3107.29,161.211a1.859,1.859,0,0,1-1.847-1.825,1.966,1.966,0,0,1,2.091-2.185,1.827,1.827,0,0,1,1.787,2.054c-.023,1.237-.637,1.885-2.031,1.956" transform="translate(-279.987 -0.121)" fill="#0884ff"/><path d="M2827.611,233.243a1.968,1.968,0,0,1-1.94-1.916,1.785,1.785,0,0,1,1.645-2.122,1.842,1.842,0,0,1,2.2,1.984,2.02,2.02,0,0,1-1.9,2.054" transform="translate(-140.017 -36.135)" fill="#0884ff"/><path d="M2549.752,302.912c-.243,1.136-.8,1.9-2,1.911a1.686,1.686,0,0,1-1.927-1.832c-.027-1.405.759-2.274,2.042-2.159a2.252,2.252,0,0,1,1.888,2.08" transform="translate(-0.017 -71.973)" fill="#0884ff"/><path d="M2687.229,304.828c-.99.029-1.514-.778-1.485-1.95a1.859,1.859,0,0,1,1.839-2.026,2.01,2.01,0,0,1,2.046,2.257c-.079,1.081-.877,1.81-2.4,1.72" transform="translate(-70.019 -71.988)" fill="#0884ff"/><path d="M2969.359,302.79c-.042,1.372-.613,2.025-1.853,2.054a1.82,1.82,0,0,1-2.04-1.788,2,2,0,0,1,2.1-2.2,1.892,1.892,0,0,1,1.8,1.932" transform="translate(-209.96 -71.991)" fill="#0884ff"/><path d="M3109.319,302.9a1.728,1.728,0,0,1-1.847,1.937,1.81,1.81,0,0,1-2.031-1.791,2,2,0,0,1,2.088-2.2c1.1.011,1.757.846,1.79,2.049" transform="translate(-279.987 -71.99)" fill="#0884ff"/><path d="M2969.382,375.074a1.872,1.872,0,0,1-1.819,1.859,2,2,0,0,1-2.065-2.232,1.783,1.783,0,0,1,2.043-1.765c1.264.05,1.779.755,1.841,2.138" transform="translate(-209.975 -108.05)" fill="#0884ff"/><path d="M3107.457,372.972c1.266-.033,1.838.673,1.852,1.895.011,1.2-.6,2.059-1.748,2.077a1.983,1.983,0,0,1-2.115-2.169,1.792,1.792,0,0,1,2.012-1.8" transform="translate(-279.989 -108.068)" fill="#0884ff"/><path d="M2549.734,446.735c-.319,1.128-.884,1.853-2.107,1.817a1.687,1.687,0,0,1-1.8-1.955c.021-1.4.827-2.232,2.138-2.018a2.2,2.2,0,0,1,1.772,2.156" transform="translate(-0.019 -143.877)" fill="#0884ff"/><path d="M2689.746,446.432c-.244,1.256-.694,2.083-1.948,2.114-1.182.029-1.955-.456-2-1.736-.05-1.368.639-2.271,1.973-2.265,1.164.007,1.553,1.089,1.976,1.887" transform="translate(-70.044 -143.876)" fill="#0884ff"/><path d="M2967.535,444.451a2.031,2.031,0,0,1,1.8,2.1c0,1.185-.538,1.932-1.818,1.944a1.8,1.8,0,0,1-2.04-2.132,2.12,2.12,0,0,1,2.055-1.916" transform="translate(-209.958 -143.829)" fill="#0884ff"/><path d="M3107.283,448.547a1.775,1.775,0,0,1-1.844-1.966,1.993,1.993,0,0,1,2.278-2.007,1.872,1.872,0,0,1,1.583,2.237,1.7,1.7,0,0,1-2.017,1.737" transform="translate(-279.983 -143.879)" fill="#0884ff"/><path d="M3177.5,444.422a2.112,2.112,0,0,1,2.026,1.953,1.822,1.822,0,0,1-2.1,2.112,1.739,1.739,0,0,1-1.794-2.019,1.991,1.991,0,0,1,1.864-2.046" transform="translate(-315.106 -143.815)" fill="#0884ff"/><path d="M2549.774,518.593a2.256,2.256,0,0,1-1.871,2.08c-1.269.128-2.06-.717-2.052-2.138a1.65,1.65,0,0,1,1.885-1.841c1.229-.005,1.752.773,2.038,1.9" transform="translate(-0.032 -179.971)" fill="#0884ff"/><path d="M2689.692,518.693c-.324,1.057-.9,2-2,1.986-1.315-.018-1.983-.966-1.9-2.322.078-1.287.887-1.72,2.049-1.66,1.252.064,1.658.925,1.856,2" transform="translate(-70.037 -179.971)" fill="#0884ff"/><path d="M2759.489,518.725a1.9,1.9,0,0,1-1.932,1.974,1.985,1.985,0,0,1-1.981-2.328,1.967,1.967,0,0,1,3.913.353" transform="translate(-104.948 -179.967)" fill="#0884ff"/><path d="M2899.534,518.453c-.118,1.462-.969,2.242-1.96,2.239a1.939,1.939,0,0,1-1.992-2.289,1.756,1.756,0,0,1,2.079-1.725,1.823,1.823,0,0,1,1.872,1.775" transform="translate(-174.993 -179.962)" fill="#0884ff"/><path d="M2967.621,516.7c1.278-.008,1.777.778,1.736,1.963a1.833,1.833,0,0,1-1.835,2.005,1.981,1.981,0,0,1-1.989-2.273,1.752,1.752,0,0,1,2.088-1.7" transform="translate(-209.989 -179.969)" fill="#0884ff"/><path d="M3039.6,518.306a2.17,2.17,0,0,1-1.825,2.347c-1.313.165-2.094-.665-2.125-2.081a1.718,1.718,0,0,1,1.89-1.919,1.965,1.965,0,0,1,2.06,1.654" transform="translate(-245.071 -179.95)" fill="#0884ff"/><path d="M3107.667,520.773a2.309,2.309,0,0,1-2.252-1.9,1.843,1.843,0,0,1,2.03-2.17c1.238,0,1.8.657,1.841,1.9.044,1.284-.808,1.74-1.62,2.169" transform="translate(-279.967 -179.976)" fill="#0884ff"/><path d="M3177.508,520.751a2.082,2.082,0,0,1-1.858-2.088,1.658,1.658,0,0,1,1.793-1.948,1.794,1.794,0,0,1,2.073,2.089,2.241,2.241,0,0,1-2.008,1.947" transform="translate(-315.112 -179.981)" fill="#0884ff"/><path d="M2687.742,592.264a1.711,1.711,0,0,1-1.966-1.8,1.859,1.859,0,0,1,1.637-2.184,1.97,1.97,0,0,1,2.211,2.063,1.761,1.761,0,0,1-1.882,1.921" transform="translate(-70.032 -215.778)" fill="#0884ff"/><path d="M2829.51,590.436c-.277,1.2-.85,1.888-2.088,1.841a1.781,1.781,0,0,1-1.829-1.989,1.9,1.9,0,0,1,2.247-2,2.081,2.081,0,0,1,1.67,2.146" transform="translate(-139.982 -215.772)" fill="#0884ff"/><path d="M2969.4,590.153c-.059,1.125-.411,1.994-1.68,2.109a1.816,1.816,0,0,1-2.159-1.62,1.963,1.963,0,0,1,1.871-2.363c1.214-.139,1.735.775,1.969,1.874" transform="translate(-209.991 -215.777)" fill="#0884ff"/><path d="M3177.784,229.174A1.744,1.744,0,0,1,3179.53,231a1.917,1.917,0,0,1-2.069,2.217c-1.2-.025-1.8-.835-1.809-2.049-.008-1.243.594-1.94,2.132-1.992" transform="translate(-315.114 -36.129)" fill="#0884ff"/><path d="M3179.6,590.328c-.2,1.146-.754,1.921-1.965,1.955a1.721,1.721,0,0,1-1.982-1.832c-.057-1.415.66-2.266,2.026-2.191,1.138.06,1.727.928,1.921,2.068" transform="translate(-315.113 -215.772)" fill="#0884ff"/><path d="M2549.756,231.028a2.193,2.193,0,0,1-1.767,2.17c-1.38.206-2.112-.655-2.138-2.013a1.71,1.71,0,0,1,1.813-1.96c1.235-.039,1.765.73,2.093,1.8" transform="translate(-0.032 -36.153)" fill="#0884ff"/><path d="M3109.254,590.661a1.683,1.683,0,0,1-2.148,1.563,1.745,1.745,0,0,1-1.647-2.117c.23-1.172,1-2.166,2.4-1.8a1.9,1.9,0,0,1,1.392,2.357" transform="translate(-279.977 -215.759)" fill="#0884ff"/><path d="M2617.69,304.823a1.863,1.863,0,0,1-2.122-1.7,1.964,1.964,0,0,1,1.992-2.284,1.791,1.791,0,0,1,1.875,1.95,1.737,1.737,0,0,1-1.745,2.029" transform="translate(-34.902 -71.983)" fill="#0884ff"/><path d="M2757.542,304.859c-1.131-.108-1.947-.647-1.946-1.888a1.951,1.951,0,1,1,3.889.005c-.051,1.279-.822,1.77-1.944,1.883" transform="translate(-104.965 -71.997)" fill="#0884ff"/><path d="M2899.538,302.945a1.843,1.843,0,0,1-1.986,1.89,1.744,1.744,0,0,1-1.922-1.874,1.875,1.875,0,0,1,2.12-2.08,1.957,1.957,0,0,1,1.788,2.064" transform="translate(-175.022 -71.998)" fill="#0884ff"/><path d="M3037.376,300.729a2.179,2.179,0,0,1,2.119,1.793,1.786,1.786,0,0,1-1.919,2.23,1.693,1.693,0,0,1-1.927-1.836,2.07,2.07,0,0,1,1.728-2.187" transform="translate(-245.071 -71.927)" fill="#0884ff"/><path d="M3109.277,231.017c.048,1.187-.456,2.06-1.606,2.2a1.972,1.972,0,0,1-2.244-2.034,1.8,1.8,0,0,1,1.874-1.95,1.714,1.714,0,0,1,1.976,1.78" transform="translate(-279.979 -36.159)" fill="#0884ff"/><path d="M2547.6,588.179a2.056,2.056,0,0,1,2.063,1.929,1.833,1.833,0,0,1-2.075,2.128c-1.3-.006-1.794-.851-1.793-2.007a1.906,1.906,0,0,1,1.8-2.051" transform="translate(-0.005 -215.735)" fill="#0884ff"/><path d="M2619.444,375.219a1.778,1.778,0,0,1-1.9,1.727,1.944,1.944,0,0,1-2-2.3,1.81,1.81,0,0,1,2.122-1.718c1.227.068,1.807.79,1.77,2.3" transform="translate(-34.896 -108.042)" fill="#0884ff"/><path d="M2757.6,377.02c-1.112-.182-1.935-.738-1.983-1.944a1.814,1.814,0,0,1,2.093-2.093,1.743,1.743,0,0,1,1.774,2.028,2,2,0,0,1-1.884,2.009" transform="translate(-104.974 -108.073)" fill="#0884ff"/><path d="M2897.572,372.9a2.007,2.007,0,1,1-.214,4.007,2.014,2.014,0,0,1,.214-4.007" transform="translate(-175.02 -108.035)" fill="#0884ff"/><path d="M3039.568,374.817a1.994,1.994,0,0,1-1.817,2.1c-1.36.137-2.1-.714-2.114-2.117a1.712,1.712,0,0,1,1.922-1.893,1.884,1.884,0,0,1,2.008,1.908" transform="translate(-245.066 -108.038)" fill="#0884ff"/><path d="M3175.6,375.278c.053-1.688.7-2.326,1.917-2.326a1.8,1.8,0,0,1,1.992,1.851,1.932,1.932,0,0,1-2.137,2.146,1.819,1.819,0,0,1-1.773-1.671" transform="translate(-315.09 -108.059)" fill="#0884ff"/><path d="M2619.456,446.235c-.04,1.728-.794,2.328-1.945,2.326a1.792,1.792,0,0,1-1.961-1.89,1.955,1.955,0,0,1,2.167-2.133,1.8,1.8,0,0,1,1.739,1.7" transform="translate(-34.901 -143.872)" fill="#0884ff"/><path d="M2757.5,444.431c1.078.208,1.908.686,1.971,1.937a1.939,1.939,0,1,1-3.868.084c0-1.235.84-1.762,1.9-2.022" transform="translate(-104.967 -143.819)" fill="#0884ff"/><path d="M2897.561,448.6c-1.117-.152-1.9-.693-1.9-1.945a1.831,1.831,0,0,1,2.129-2.065,1.855,1.855,0,0,1,1.738,2.112,1.88,1.88,0,0,1-1.962,1.9" transform="translate(-175.035 -143.891)" fill="#0884ff"/><path d="M3039.578,446.467a1.926,1.926,0,0,1-1.812,2.07,1.709,1.709,0,0,1-2.119-1.657c-.12-1.386.53-2.344,1.879-2.359a2.1,2.1,0,0,1,2.052,1.945" transform="translate(-245.064 -143.865)" fill="#0884ff"/><path d="M3179.6,302.93a1.939,1.939,0,0,1-2,1.9c-1.156.01-1.917-.488-1.911-1.806.007-1.381.709-2.276,2.023-2.156a2.217,2.217,0,0,1,1.883,2.065" transform="translate(-315.135 -71.989)" fill="#0884ff"/><path d="M3037.567,229.113c1.183.157,1.97.746,1.975,1.961a1.864,1.864,0,0,1-2.143,2.076,1.811,1.811,0,0,1-1.707-2.115,1.854,1.854,0,0,1,1.875-1.922" transform="translate(-245.093 -36.098)" fill="#0884ff"/><path d="M2619.509,590.165c-.074,1.351-.666,2.082-1.866,2.112a1.806,1.806,0,0,1-2.024-1.8,1.875,1.875,0,0,1,2.034-2.193c1.209.011,1.683.911,1.856,1.882" transform="translate(-34.933 -215.786)" fill="#0884ff"/><path d="M2759.517,590.411c-.2,1.3-.9,1.932-2.058,1.872a1.779,1.779,0,0,1-1.832-1.989,1.824,1.824,0,0,1,2.208-1.971,1.933,1.933,0,0,1,1.682,2.088" transform="translate(-104.979 -215.793)" fill="#0884ff"/><path d="M2897.6,592.339c-1.34-.18-2.008-.846-1.971-2.06a1.824,1.824,0,0,1,1.878-1.966,2.015,2.015,0,0,1,.093,4.027" transform="translate(-175.023 -215.801)" fill="#0884ff"/><path d="M3037.693,592.286a1.779,1.779,0,0,1-2.038-1.771,1.934,1.934,0,1,1,2.037,1.771" transform="translate(-245.071 -215.784)" fill="#0884ff"/><path d="M2619.45,231.4c-.172,1.115-.785,1.9-1.969,1.82a1.905,1.905,0,0,1-1.882-2.349,1.8,1.8,0,0,1,2.164-1.631c1.211.116,1.729.895,1.688,2.159" transform="translate(-34.914 -36.157)" fill="#0884ff"/><path d="M2757.857,233.3c-1.323-.146-2.135-.68-2.224-1.89a1.816,1.816,0,0,1,2.03-2.159,1.761,1.761,0,0,1,1.836,1.976c.027,1.261-.842,1.728-1.642,2.073" transform="translate(-104.979 -36.168)" fill="#0884ff"/><path d="M2899.529,230.856c-.013,1.462-.653,2.242-1.772,2.342a1.822,1.822,0,0,1-2.114-2.073,1.746,1.746,0,0,1,1.906-1.9,1.877,1.877,0,0,1,1.979,1.633" transform="translate(-175.029 -36.153)" fill="#0884ff"/></g></svg>