<svg xmlns="http://www.w3.org/2000/svg" width="586.192" height="162.951" viewBox="0 0 586.192 162.951"><g transform="translate(47.116 1215.103)" opacity="0.5"><path d="M517.105-1069c-.213,1.289-.731,2.169-2.136,2.206a1.956,1.956,0,0,1-2.248-1.977,2.175,2.175,0,0,1,2.274-2.471c1.211.032,1.869,1.066,2.11,2.242" transform="translate(-251.288 -64.573)" fill="#0884ff"/><path d="M517.08-996.967a2.265,2.265,0,0,1-1.861,2.264,2.081,2.081,0,0,1-2.442-2.222,1.921,1.921,0,0,1,2.008-2.189c1.378-.037,2.011.69,2.3,2.147" transform="translate(-251.313 -96.949)" fill="#0884ff"/><path d="M517.134-925.462c-.3,1.534-.806,2.39-2.224,2.39a1.927,1.927,0,0,1-2.1-2.085,2.1,2.1,0,0,1,2.324-2.349c1.3.088,1.652,1.262,2,2.044" transform="translate(-251.328 -129.089)" fill="#0884ff"/><path d="M92.9-1212.385c.021-1.787.946-2.582,2.114-2.514a2.214,2.214,0,0,1,2.188,2.584,2.064,2.064,0,0,1-2.385,1.881c-1.264-.149-2.074-.844-1.917-1.951" transform="translate(-62.837 -0.09)" fill="#0884ff"/><path d="M26.947-997.935c.093,2.147-.519,3.141-1.75,3.248a2.245,2.245,0,0,1-2.467-2.291,1.944,1.944,0,0,1,2.1-2.1c1.323-.046,2.12.519,2.115,1.141" transform="translate(-31.349 -96.965)" fill="#0884ff"/><path d="M164.7-1215.1c1.13.275,2.185.644,2.294,2.079.1,1.3-.332,2.317-1.715,2.474a2.124,2.124,0,0,1-2.6-2.1c-.106-1.368,1.006-1.911,2.017-2.449" transform="translate(-94.166)" fill="#0884ff"/><path d="M375.163-994.616a2.177,2.177,0,0,1-2.262-2.047c-.095-1.155.218-2.268,1.722-2.4s2.492.552,2.548,2.057a2.508,2.508,0,0,1-2.008,2.391" transform="translate(-188.523 -96.964)" fill="#0884ff"/><path d="M867.126-1212.762a2.288,2.288,0,0,1-2.087,2.36,1.923,1.923,0,0,1-2.281-1.934,2.1,2.1,0,0,1,2.144-2.566c1.182-.027,1.941.953,2.224,2.14" transform="translate(-408.402 -0.09)" fill="#0884ff"/><path d="M865-994.6a2.186,2.186,0,0,1-2.219-2.111,1.92,1.92,0,0,1,1.811-2.379,2.029,2.029,0,0,1,2.48,2.165c.02,1.3-.912,1.986-2.072,2.326" transform="translate(-408.411 -96.952)" fill="#0884ff"/><path d="M97.313-997.259c-.145,1.518-.912,2.448-2.067,2.574-1.466.161-2.311-.792-2.308-2.347a1.91,1.91,0,0,1,2.117-2.092c1.375-.037,1.893.917,2.258,1.865" transform="translate(-62.865 -96.944)" fill="#0884ff"/><path d="M97.3-925.407c-.1,1.307-.694,2.217-2,2.322-1.227.1-2.233-.328-2.347-1.814-.12-1.534.567-2.544,2.072-2.616,1.3-.063,1.91.955,2.276,2.108" transform="translate(-62.864 -129.086)" fill="#0884ff"/><path d="M-45.018-1215.061c1.14.331,2.133.916,2.222,2.224.115,1.625-.953,2.344-2.358,2.317-1.294-.024-1.977-.872-1.961-2.262.014-1.443,1-1.9,2.1-2.28" transform="translate(0 -0.019)" fill="#0884ff"/><path d="M26.96-1212.759c.085,1.35-.461,2.17-1.829,2.294a2.1,2.1,0,0,1-2.413-1.822,2.2,2.2,0,0,1,2.143-2.577,1.942,1.942,0,0,1,2.1,2.1" transform="translate(-31.331 -0.104)" fill="#0884ff"/><path d="M234.859-1215.035a2.542,2.542,0,0,1,2.351,2.1,2.053,2.053,0,0,1-2.246,2.4,1.868,1.868,0,0,1-2.038-2.117,2.389,2.389,0,0,1,1.933-2.383" transform="translate(-125.7 -0.031)" fill="#0884ff"/><path d="M305.035-1215.019c1.155.421,1.987,1.026,1.954,2.439a1.975,1.975,0,0,1-2.142,2.113,2.065,2.065,0,0,1-2.154-2.537,2.427,2.427,0,0,1,2.342-2.015" transform="translate(-156.997 -0.038)" fill="#0884ff"/><path d="M377.22-1212.642c-.238,1.23-.788,2.14-2.131,2.171a1.875,1.875,0,0,1-2.2-1.953c-.036-1.488.74-2.544,2.2-2.456a2.453,2.453,0,0,1,2.127,2.238" transform="translate(-188.526 -0.098)" fill="#0884ff"/><path d="M444.987-1210.414c-1.169-.1-2.153-.538-2.288-1.939a2.178,2.178,0,0,1,2.208-2.546,2.061,2.061,0,0,1,2.119,2.177c.029,1.417-.765,2.049-2.038,2.308" transform="translate(-219.852 -0.091)" fill="#0884ff"/><path d="M517.1-1212.622c-.223,1.3-.851,2.147-2.186,2.175a2,2,0,0,1-2.215-2.045,2.17,2.17,0,0,1,2.331-2.414,2.371,2.371,0,0,1,2.07,2.283" transform="translate(-251.278 -0.087)" fill="#0884ff"/><path d="M585.021-1210.428c-1.176-.073-2.131-.515-2.292-1.918a2.126,2.126,0,0,1,2.149-2.569,2.157,2.157,0,0,1,2.174,2.174c.068,1.413-.756,2.047-2.031,2.313" transform="translate(-282.704 -0.084)" fill="#0884ff"/><path d="M656.914-1212.469a1.9,1.9,0,0,1-2.176,1.99,1.968,1.968,0,0,1-2.115-2.108,2.206,2.206,0,0,1,2.432-2.29,2.14,2.14,0,0,1,1.859,2.408" transform="translate(-314.085 -0.096)" fill="#0884ff"/><path d="M727.139-1212.724c-.2,1.616-1.123,2.354-2.283,2.322a1.967,1.967,0,0,1-2.087-2.167c.056-1.554.9-2.468,2.355-2.287a2.29,2.29,0,0,1,2.015,2.131" transform="translate(-345.572 -0.101)" fill="#0884ff"/><path d="M794.629-1210.427a2.041,2.041,0,0,1-2.058-2.015,2.2,2.2,0,0,1,2.325-2.408,2.026,2.026,0,0,1,1.959,2.281c.005,1.413-.74,2.044-2.226,2.142" transform="translate(-376.902 -0.113)" fill="#0884ff"/><path d="M375.161-1138.317a2.231,2.231,0,0,1-2.256-2.347,1.875,1.875,0,0,1,2.029-2.122,2,2,0,0,1,2.2,2.379,2.394,2.394,0,0,1-1.974,2.09" transform="translate(-188.531 -32.46)" fill="#0884ff"/><path d="M515.01-1142.806a1.923,1.923,0,0,1,2.049,2.142,2.093,2.093,0,0,1-2.036,2.248,2.1,2.1,0,0,1-2.221-2.437,1.886,1.886,0,0,1,2.208-1.952" transform="translate(-251.324 -32.446)" fill="#0884ff"/><path d="M656.982-1140.629c-.261,1.186-.74,2.274-2.106,2.222a2.186,2.186,0,0,1-2.238-2.5,2,2,0,0,1,2.292-1.942c1.42.063,1.873.987,2.052,2.219" transform="translate(-314.089 -32.431)" fill="#0884ff"/><path d="M25.183-1066.824a2.039,2.039,0,0,1-2.459-1.857,2.2,2.2,0,0,1,2.208-2.528c1.225-.069,2,.844,2.038,2.183s-.477,2.193-1.788,2.2" transform="translate(-31.34 -64.587)" fill="#0884ff"/><path d="M164.716-1071.381c1.189.2,2.108.7,2.251,2.068.136,1.3-.277,2.232-1.695,2.39-1.493.167-2.483-.5-2.557-2.032-.063-1.289.946-1.94,2-2.426" transform="translate(-94.184 -64.511)" fill="#0884ff"/><path d="M237.316-1068.955c-.279,1.221-.828,2.119-2.183,2.145-1.3.027-2.119-.516-2.156-1.959-.039-1.545.763-2.53,2.192-2.435a2.538,2.538,0,0,1,2.147,2.249" transform="translate(-125.722 -64.588)" fill="#0884ff"/><path d="M304.8-1071.423c1.175.273,2.1.79,2.176,2.188.079,1.362-.508,2.224-1.861,2.325a2.022,2.022,0,0,1-2.445-2.2c.01-1.333,1.031-1.911,2.131-2.313" transform="translate(-157.007 -64.493)" fill="#0884ff"/><path d="M377.24-1069.089c-.187,1.175-.6,2.153-1.974,2.264-1.262.1-2.2-.311-2.323-1.743-.13-1.489.573-2.55,2.017-2.637,1.244-.077,1.856.994,2.279,2.117" transform="translate(-188.542 -64.588)" fill="#0884ff"/><path d="M444.83-1066.777c-1.282-.111-2.146-.751-2.1-2.135a2.113,2.113,0,0,1,2.414-2.276,2.085,2.085,0,0,1,1.9,2.383c-.095,1.43-.953,1.952-2.213,2.027" transform="translate(-219.872 -64.59)" fill="#0884ff"/><path d="M584.82-1071.417c1.151.309,2.138.862,2.213,2.2a1.985,1.985,0,0,1-2.315,2.315,1.932,1.932,0,0,1-2-2.219c.016-1.426,1.014-1.893,2.1-2.294" transform="translate(-282.71 -64.495)" fill="#0884ff"/><path d="M654.849-1071.332a2.292,2.292,0,0,1,2.041,2.29c.036,1.309-.522,2.142-1.932,2.179a2.018,2.018,0,0,1-2.3-2.3,2.425,2.425,0,0,1,2.2-2.165" transform="translate(-314.097 -64.533)" fill="#0884ff"/><path d="M725.12-1066.793c-1.289-.034-2.224-.44-2.349-1.906a2.121,2.121,0,0,1,1.745-2.514,2.153,2.153,0,0,1,2.555,2.158c.147,1.339-.739,2.056-1.951,2.261" transform="translate(-345.567 -64.569)" fill="#0884ff"/><path d="M794.8-1071.349a2.264,2.264,0,0,1,2.024,2.276c.016,1.327-.52,2.156-1.929,2.2a2.048,2.048,0,0,1-2.342-2.3,2.513,2.513,0,0,1,2.248-2.171" transform="translate(-376.894 -64.526)" fill="#0884ff"/><path d="M864.99-1071.339c1.105.4,2.092,1.059,2.079,2.33a2.01,2.01,0,0,1-2.478,2.119c-1.38-.123-1.91-.985-1.789-2.323a2.257,2.257,0,0,1,2.188-2.126" transform="translate(-408.42 -64.53)" fill="#0884ff"/><path d="M164.988-994.61a2.316,2.316,0,0,1-2.284-2.081,2.006,2.006,0,0,1,2.237-2.4,1.906,1.906,0,0,1,2.051,2.154,2.218,2.218,0,0,1-2,2.329" transform="translate(-94.172 -96.958)" fill="#0884ff"/><path d="M237.294-996.889c-.422,1.28-1.117,2.4-2.6,2.176a2.07,2.07,0,0,1-1.731-2.48,1.879,1.879,0,0,1,2.228-1.92c1.314.057,1.909.941,2.1,2.224" transform="translate(-125.713 -96.948)" fill="#0884ff"/><path d="M656.865-996.04A2.05,2.05,0,0,1,655-994.685a2.189,2.189,0,0,1-2.367-2.358,1.922,1.922,0,0,1,2.14-2.044c1.332.013,2.081.612,2.09,3.047" transform="translate(-314.091 -96.961)" fill="#0884ff"/><path d="M796.863-996.878c-.066,1.332-.8,2.226-2.04,2.183A2.21,2.21,0,0,1,792.6-997.2a2,2,0,0,1,2.312-1.893c1.413.064,1.913.908,1.952,2.218" transform="translate(-376.912 -96.956)" fill="#0884ff"/><path d="M237.338-925.469c-.267,1.393-.79,2.313-2.133,2.383-1.28.068-2.16-.425-2.235-1.874-.077-1.523.617-2.524,2.115-2.521,1.263,0,1.776,1.123,2.253,2.012" transform="translate(-125.717 -129.103)" fill="#0884ff"/><path d="M377.3-925.35c-.383,1.449-.936,2.3-2.32,2.272a1.87,1.87,0,0,1-2.072-2.081c.013-1.491.845-2.478,2.327-2.333,1.236.122,1.664,1.3,2.065,2.142" transform="translate(-188.533 -129.091)" fill="#0884ff"/><path d="M656.937-925.277c-.109,1.43-.706,2.183-2.09,2.212a1.958,1.958,0,0,1-2.2-2,2.185,2.185,0,0,1,2.322-2.412c1.269.048,1.863,1.042,1.97,2.2" transform="translate(-314.096 -129.104)" fill="#0884ff"/><path d="M-45.157-1066.842a1.892,1.892,0,0,1-1.884-2.262c.068-1.348.94-2.234,2.093-2.116a2.226,2.226,0,0,1,2.163,2.578,2.011,2.011,0,0,1-2.372,1.8" transform="translate(-0.031 -64.579)" fill="#0884ff"/><path d="M796.872-1140.609c-.111,1.278-.717,2.206-2.024,2.2a2.165,2.165,0,0,1-2.222-2.473,1.99,1.99,0,0,1,2.271-1.932c1.418.048,1.888.931,1.975,2.208" transform="translate(-376.926 -32.446)" fill="#0884ff"/><path d="M92.9-1140.59c.073-1.521.774-2.247,2.131-2.245a1.993,1.993,0,0,1,2.169,2.092,2.068,2.068,0,0,1-2.362,2.337,1.973,1.973,0,0,1-1.938-2.183" transform="translate(-62.85 -32.438)" fill="#0884ff"/><path d="M164.8-1142.871a1.973,1.973,0,0,1,2.2,2.119,2,2,0,0,1-1.92,2.33,2.141,2.141,0,0,1-2.376-2.367,1.988,1.988,0,0,1,2.092-2.081" transform="translate(-94.181 -32.422)" fill="#0884ff"/><path d="M27.013-1140.623c-.12,1.276-.69,2.264-2.028,2.212a2.181,2.181,0,0,1-2.242-2.5,2.009,2.009,0,0,1,2.291-1.947c1.418.073,1.92.923,1.979,2.231" transform="translate(-31.352 -32.428)" fill="#0884ff"/><path d="M237.294-1140.846c-.172,1.185-.707,2.209-1.921,2.4-1.511.245-2.349-.69-2.386-2.189a1.876,1.876,0,0,1,1.963-2.19c1.353-.042,1.97.767,2.344,1.974" transform="translate(-125.727 -32.444)" fill="#0884ff"/><path d="M727.108-925.223c-.155,1.325-.826,2.133-2.156,2.151a1.9,1.9,0,0,1-2.194-2.02c-.037-1.578.81-2.483,2.276-2.413a2.223,2.223,0,0,1,2.074,2.283" transform="translate(-345.567 -129.09)" fill="#0884ff"/><path d="M867.157-925.613c-.121,1.5-.726,2.4-2.018,2.519a1.889,1.889,0,0,1-2.342-1.817,2.1,2.1,0,0,1,2.065-2.6c1.319-.081,1.833,1.032,2.3,1.9" transform="translate(-408.417 -129.088)" fill="#0884ff"/><path d="M796.852-925.166c-.059,1.335-.656,2.1-2.04,2.086a2,2,0,0,1-2.223-1.986,2.2,2.2,0,0,1,2.337-2.393c1.276.029,1.9.983,1.926,2.292" transform="translate(-376.912 -129.113)" fill="#0884ff"/><path d="M164.812-927.7c1.44.368,2.21,1.06,2.18,2.421a1.884,1.884,0,0,1-2.09,2.1,2.029,2.029,0,0,1-2.206-2.442,2.506,2.506,0,0,1,2.116-2.079" transform="translate(-94.167 -129.005)" fill="#0884ff"/><path d="M-42.73-925.193c-.184,1.255-.818,2.1-2.129,2.13a1.9,1.9,0,0,1-2.19-1.993c-.055-1.547.79-2.485,2.233-2.4a2.223,2.223,0,0,1,2.087,2.264" transform="translate(-0.029 -129.111)" fill="#0884ff"/><path d="M95.371-1066.8c-1.506-.038-2.364-.516-2.423-1.977a2.088,2.088,0,0,1,1.815-2.417,2.221,2.221,0,0,1,2.458,2.276,1.944,1.944,0,0,1-1.85,2.119" transform="translate(-62.868 -64.588)" fill="#0884ff"/><path d="M25.119-927.584a2.253,2.253,0,0,1,1.854,2.435c-.057,1.373-.726,2.086-2.1,2.015-1.516-.08-2.387-.978-2.124-2.455a2.376,2.376,0,0,1,2.365-2" transform="translate(-31.341 -129.057)" fill="#0884ff"/><path d="M867.156-1140.7c-.266,1.225-.853,2.236-2.127,2.3-1.515.077-2.289-.878-2.239-2.417a1.89,1.89,0,0,1,2.181-2.011c1.36.029,1.92.923,2.185,2.127" transform="translate(-408.422 -32.442)" fill="#0884ff"/><path d="M587.07-925.474c-.016,1.338-.594,2.219-1.9,2.365a1.92,1.92,0,0,1-2.374-1.774,2.066,2.066,0,0,1,2.029-2.609,2.133,2.133,0,0,1,2.244,2.017" transform="translate(-282.73 -129.096)" fill="#0884ff"/><path d="M307-925.1a1.9,1.9,0,0,1-2.175,2.044,1.967,1.967,0,0,1-2.13-2.128,2.11,2.11,0,0,1,2.419-2.3A2.058,2.058,0,0,1,307-925.1" transform="translate(-157.018 -129.096)" fill="#0884ff"/><path d="M447.047-925.292c-.116,1.61-.949,2.249-2.215,2.211a1.95,1.95,0,0,1-2.063-2.145,2.041,2.041,0,0,1,2.41-2.23,1.98,1.98,0,0,1,1.868,2.164" transform="translate(-219.89 -129.106)" fill="#0884ff"/><path d="M727.128-996.878a2.252,2.252,0,0,1-2.2,2.2c-1.487.039-2.225-1.016-2.126-2.539a1.9,1.9,0,0,1,2.294-1.89,2.086,2.086,0,0,1,2.032,2.226" transform="translate(-345.583 -96.949)" fill="#0884ff"/><path d="M584.981-999.142a2.031,2.031,0,0,1,2.061,2.178,2.036,2.036,0,0,1-2.4,2.226,2.026,2.026,0,0,1-1.861-2.364c.1-1.393.967-1.927,2.2-2.04" transform="translate(-282.732 -96.937)" fill="#0884ff"/><path d="M445.131-994.579c-1.409-.209-2.3-.824-2.4-2.136a1.948,1.948,0,0,1,1.865-2.328A2.007,2.007,0,0,1,447-996.852c.045,1.443-1.01,1.844-1.874,2.272" transform="translate(-219.869 -96.975)" fill="#0884ff"/><path d="M307-996.89a1.984,1.984,0,0,1-1.874,2.187,2.14,2.14,0,0,1-2.433-2.3,1.982,1.982,0,0,1,2.122-2.131c1.269-.029,2.111.618,2.185,2.24" transform="translate(-157.016 -96.942)" fill="#0884ff"/><path d="M-42.711-997.265c-.077,1.541-.806,2.424-2,2.549-1.471.154-2.31-.763-2.311-2.3a1.933,1.933,0,0,1,2.106-2.09,2.124,2.124,0,0,1,2.2,1.836" transform="translate(-0.044 -96.955)" fill="#0884ff"/><path d="M-42.734-1140.785a2.2,2.2,0,0,1-1.985,2.354c-1.536.156-2.3-.806-2.319-2.3a1.913,1.913,0,0,1,2.106-2.093,2.113,2.113,0,0,1,2.2,2.04" transform="translate(-0.035 -32.443)" fill="#0884ff"/><path d="M305.013-1138.357a2.144,2.144,0,0,1-2.251-2.056,2.021,2.021,0,0,1,2.245-2.383,1.9,1.9,0,0,1,2.013,2.178,2.158,2.158,0,0,1-2.008,2.262" transform="translate(-157.042 -32.456)" fill="#0884ff"/><path d="M447.053-1140.582c-.136,1.3-.851,2.162-2.1,2.158a2.037,2.037,0,0,1-2.16-2.473,1.951,1.951,0,0,1,2.269-1.915,2.015,2.015,0,0,1,2,2.229" transform="translate(-219.893 -32.446)" fill="#0884ff"/><path d="M587.089-1140.99c-.075,1.568-.73,2.46-1.987,2.546a2.026,2.026,0,0,1-2.306-2.319,1.945,1.945,0,0,1,2.131-2.072,2.136,2.136,0,0,1,2.162,1.845" transform="translate(-282.743 -32.438)" fill="#0884ff"/><path d="M727.116-1140.6c-.2,1.271-.844,2.176-2.124,2.2-1.523.027-2.253-.971-2.179-2.467a1.884,1.884,0,0,1,2.229-1.932,2.141,2.141,0,0,1,2.074,2.2" transform="translate(-345.59 -32.45)" fill="#0884ff"/><path d="M1012.936-997.935c.093,2.147-.519,3.141-1.75,3.248a2.245,2.245,0,0,1-2.467-2.291,1.944,1.944,0,0,1,2.1-2.1c1.323-.046,2.121.519,2.115,1.141" transform="translate(-473.922 -96.965)" fill="#0884ff"/><path d="M940.97-1215.061c1.141.331,2.133.916,2.223,2.224.114,1.625-.953,2.344-2.358,2.317-1.295-.024-1.977-.872-1.961-2.262.014-1.443,1-1.9,2.1-2.28" transform="translate(-442.573 -0.019)" fill="#0884ff"/><path d="M1012.948-1212.759c.086,1.35-.461,2.17-1.829,2.294a2.1,2.1,0,0,1-2.413-1.822,2.2,2.2,0,0,1,2.143-2.577,1.942,1.942,0,0,1,2.1,2.1" transform="translate(-473.905 -0.104)" fill="#0884ff"/><path d="M1011.172-1066.824a2.039,2.039,0,0,1-2.459-1.857,2.2,2.2,0,0,1,2.208-2.528c1.225-.069,2,.844,2.037,2.183s-.477,2.193-1.787,2.2" transform="translate(-473.914 -64.587)" fill="#0884ff"/><path d="M940.831-1066.842a1.893,1.893,0,0,1-1.884-2.262c.068-1.348.941-2.234,2.094-2.116a2.226,2.226,0,0,1,2.163,2.578,2.012,2.012,0,0,1-2.373,1.8" transform="translate(-442.604 -64.579)" fill="#0884ff"/><path d="M1013-1140.623c-.12,1.276-.691,2.264-2.028,2.212a2.181,2.181,0,0,1-2.242-2.5,2.008,2.008,0,0,1,2.291-1.947c1.417.073,1.92.923,1.979,2.231" transform="translate(-473.925 -32.428)" fill="#0884ff"/><path d="M943.259-925.193c-.184,1.255-.819,2.1-2.129,2.13a1.9,1.9,0,0,1-2.19-1.993c-.056-1.547.79-2.485,2.233-2.4a2.222,2.222,0,0,1,2.087,2.264" transform="translate(-442.602 -129.111)" fill="#0884ff"/><path d="M1011.108-927.584a2.253,2.253,0,0,1,1.853,2.435c-.057,1.373-.726,2.086-2.095,2.015-1.516-.08-2.387-.978-2.124-2.455a2.376,2.376,0,0,1,2.365-2" transform="translate(-473.914 -129.057)" fill="#0884ff"/><path d="M943.278-997.265c-.077,1.541-.806,2.424-2,2.549-1.472.154-2.31-.763-2.311-2.3a1.933,1.933,0,0,1,2.106-2.09,2.125,2.125,0,0,1,2.2,1.836" transform="translate(-442.617 -96.955)" fill="#0884ff"/><path d="M943.254-1140.785a2.2,2.2,0,0,1-1.984,2.354c-1.536.156-2.3-.806-2.319-2.3a1.913,1.913,0,0,1,2.107-2.093,2.112,2.112,0,0,1,2.2,2.04" transform="translate(-442.608 -32.443)" fill="#0884ff"/></g></svg>