<?xml version="1.0" encoding="utf-8"?>
<svg version="1.1" baseProfile="full"  width="456" height="456" viewBox="0 0 456 456"
		 xmlns="http://www.w3.org/2000/svg" xmlns:xlink="http://www.w3.org/1999/xlink" xmlns:ev="http://www.w3.org/2001/xml-events">
<desc></desc>
<rect width="456" height="456" fill="#ffffff" cx="0" cy="0" />
<defs>
<rect id="p" width="8" height="8" />
</defs>
<g fill="#000000">
<use x="32" y="32" xlink:href="#p" />
<use x="32" y="40" xlink:href="#p" />
<use x="32" y="48" xlink:href="#p" />
<use x="32" y="56" xlink:href="#p" />
<use x="32" y="64" xlink:href="#p" />
<use x="32" y="72" xlink:href="#p" />
<use x="32" y="80" xlink:href="#p" />
<use x="32" y="96" xlink:href="#p" />
<use x="32" y="104" xlink:href="#p" />
<use x="32" y="128" xlink:href="#p" />
<use x="32" y="144" xlink:href="#p" />
<use x="32" y="152" xlink:href="#p" />
<use x="32" y="160" xlink:href="#p" />
<use x="32" y="168" xlink:href="#p" />
<use x="32" y="176" xlink:href="#p" />
<use x="32" y="216" xlink:href="#p" />
<use x="32" y="224" xlink:href="#p" />
<use x="32" y="240" xlink:href="#p" />
<use x="32" y="280" xlink:href="#p" />
<use x="32" y="288" xlink:href="#p" />
<use x="32" y="296" xlink:href="#p" />
<use x="32" y="304" xlink:href="#p" />
<use x="32" y="312" xlink:href="#p" />
<use x="32" y="320" xlink:href="#p" />
<use x="32" y="328" xlink:href="#p" />
<use x="32" y="352" xlink:href="#p" />
<use x="32" y="368" xlink:href="#p" />
<use x="32" y="376" xlink:href="#p" />
<use x="32" y="384" xlink:href="#p" />
<use x="32" y="392" xlink:href="#p" />
<use x="32" y="400" xlink:href="#p" />
<use x="32" y="408" xlink:href="#p" />
<use x="32" y="416" xlink:href="#p" />
<use x="40" y="32" xlink:href="#p" />
<use x="40" y="80" xlink:href="#p" />
<use x="40" y="96" xlink:href="#p" />
<use x="40" y="104" xlink:href="#p" />
<use x="40" y="128" xlink:href="#p" />
<use x="40" y="136" xlink:href="#p" />
<use x="40" y="152" xlink:href="#p" />
<use x="40" y="160" xlink:href="#p" />
<use x="40" y="200" xlink:href="#p" />
<use x="40" y="216" xlink:href="#p" />
<use x="40" y="224" xlink:href="#p" />
<use x="40" y="240" xlink:href="#p" />
<use x="40" y="256" xlink:href="#p" />
<use x="40" y="272" xlink:href="#p" />
<use x="40" y="280" xlink:href="#p" />
<use x="40" y="288" xlink:href="#p" />
<use x="40" y="336" xlink:href="#p" />
<use x="40" y="344" xlink:href="#p" />
<use x="40" y="352" xlink:href="#p" />
<use x="40" y="368" xlink:href="#p" />
<use x="40" y="416" xlink:href="#p" />
<use x="48" y="32" xlink:href="#p" />
<use x="48" y="48" xlink:href="#p" />
<use x="48" y="56" xlink:href="#p" />
<use x="48" y="64" xlink:href="#p" />
<use x="48" y="80" xlink:href="#p" />
<use x="48" y="96" xlink:href="#p" />
<use x="48" y="104" xlink:href="#p" />
<use x="48" y="120" xlink:href="#p" />
<use x="48" y="128" xlink:href="#p" />
<use x="48" y="144" xlink:href="#p" />
<use x="48" y="152" xlink:href="#p" />
<use x="48" y="160" xlink:href="#p" />
<use x="48" y="168" xlink:href="#p" />
<use x="48" y="176" xlink:href="#p" />
<use x="48" y="208" xlink:href="#p" />
<use x="48" y="240" xlink:href="#p" />
<use x="48" y="272" xlink:href="#p" />
<use x="48" y="296" xlink:href="#p" />
<use x="48" y="320" xlink:href="#p" />
<use x="48" y="328" xlink:href="#p" />
<use x="48" y="344" xlink:href="#p" />
<use x="48" y="352" xlink:href="#p" />
<use x="48" y="368" xlink:href="#p" />
<use x="48" y="384" xlink:href="#p" />
<use x="48" y="392" xlink:href="#p" />
<use x="48" y="400" xlink:href="#p" />
<use x="48" y="416" xlink:href="#p" />
<use x="56" y="32" xlink:href="#p" />
<use x="56" y="48" xlink:href="#p" />
<use x="56" y="56" xlink:href="#p" />
<use x="56" y="64" xlink:href="#p" />
<use x="56" y="80" xlink:href="#p" />
<use x="56" y="96" xlink:href="#p" />
<use x="56" y="136" xlink:href="#p" />
<use x="56" y="152" xlink:href="#p" />
<use x="56" y="160" xlink:href="#p" />
<use x="56" y="168" xlink:href="#p" />
<use x="56" y="208" xlink:href="#p" />
<use x="56" y="216" xlink:href="#p" />
<use x="56" y="240" xlink:href="#p" />
<use x="56" y="248" xlink:href="#p" />
<use x="56" y="288" xlink:href="#p" />
<use x="56" y="320" xlink:href="#p" />
<use x="56" y="328" xlink:href="#p" />
<use x="56" y="344" xlink:href="#p" />
<use x="56" y="368" xlink:href="#p" />
<use x="56" y="384" xlink:href="#p" />
<use x="56" y="392" xlink:href="#p" />
<use x="56" y="400" xlink:href="#p" />
<use x="56" y="416" xlink:href="#p" />
<use x="64" y="32" xlink:href="#p" />
<use x="64" y="48" xlink:href="#p" />
<use x="64" y="56" xlink:href="#p" />
<use x="64" y="64" xlink:href="#p" />
<use x="64" y="80" xlink:href="#p" />
<use x="64" y="112" xlink:href="#p" />
<use x="64" y="168" xlink:href="#p" />
<use x="64" y="200" xlink:href="#p" />
<use x="64" y="208" xlink:href="#p" />
<use x="64" y="216" xlink:href="#p" />
<use x="64" y="224" xlink:href="#p" />
<use x="64" y="232" xlink:href="#p" />
<use x="64" y="240" xlink:href="#p" />
<use x="64" y="248" xlink:href="#p" />
<use x="64" y="264" xlink:href="#p" />
<use x="64" y="272" xlink:href="#p" />
<use x="64" y="288" xlink:href="#p" />
<use x="64" y="296" xlink:href="#p" />
<use x="64" y="304" xlink:href="#p" />
<use x="64" y="312" xlink:href="#p" />
<use x="64" y="320" xlink:href="#p" />
<use x="64" y="368" xlink:href="#p" />
<use x="64" y="384" xlink:href="#p" />
<use x="64" y="392" xlink:href="#p" />
<use x="64" y="400" xlink:href="#p" />
<use x="64" y="416" xlink:href="#p" />
<use x="72" y="32" xlink:href="#p" />
<use x="72" y="80" xlink:href="#p" />
<use x="72" y="128" xlink:href="#p" />
<use x="72" y="144" xlink:href="#p" />
<use x="72" y="176" xlink:href="#p" />
<use x="72" y="200" xlink:href="#p" />
<use x="72" y="208" xlink:href="#p" />
<use x="72" y="240" xlink:href="#p" />
<use x="72" y="272" xlink:href="#p" />
<use x="72" y="280" xlink:href="#p" />
<use x="72" y="288" xlink:href="#p" />
<use x="72" y="296" xlink:href="#p" />
<use x="72" y="312" xlink:href="#p" />
<use x="72" y="336" xlink:href="#p" />
<use x="72" y="368" xlink:href="#p" />
<use x="72" y="416" xlink:href="#p" />
<use x="80" y="32" xlink:href="#p" />
<use x="80" y="40" xlink:href="#p" />
<use x="80" y="48" xlink:href="#p" />
<use x="80" y="56" xlink:href="#p" />
<use x="80" y="64" xlink:href="#p" />
<use x="80" y="72" xlink:href="#p" />
<use x="80" y="80" xlink:href="#p" />
<use x="80" y="96" xlink:href="#p" />
<use x="80" y="112" xlink:href="#p" />
<use x="80" y="128" xlink:href="#p" />
<use x="80" y="144" xlink:href="#p" />
<use x="80" y="160" xlink:href="#p" />
<use x="80" y="176" xlink:href="#p" />
<use x="80" y="192" xlink:href="#p" />
<use x="80" y="208" xlink:href="#p" />
<use x="80" y="224" xlink:href="#p" />
<use x="80" y="240" xlink:href="#p" />
<use x="80" y="256" xlink:href="#p" />
<use x="80" y="272" xlink:href="#p" />
<use x="80" y="288" xlink:href="#p" />
<use x="80" y="304" xlink:href="#p" />
<use x="80" y="320" xlink:href="#p" />
<use x="80" y="336" xlink:href="#p" />
<use x="80" y="352" xlink:href="#p" />
<use x="80" y="368" xlink:href="#p" />
<use x="80" y="376" xlink:href="#p" />
<use x="80" y="384" xlink:href="#p" />
<use x="80" y="392" xlink:href="#p" />
<use x="80" y="400" xlink:href="#p" />
<use x="80" y="408" xlink:href="#p" />
<use x="80" y="416" xlink:href="#p" />
<use x="88" y="104" xlink:href="#p" />
<use x="88" y="168" xlink:href="#p" />
<use x="88" y="192" xlink:href="#p" />
<use x="88" y="208" xlink:href="#p" />
<use x="88" y="240" xlink:href="#p" />
<use x="88" y="248" xlink:href="#p" />
<use x="88" y="256" xlink:href="#p" />
<use x="88" y="272" xlink:href="#p" />
<use x="88" y="304" xlink:href="#p" />
<use x="88" y="312" xlink:href="#p" />
<use x="88" y="320" xlink:href="#p" />
<use x="88" y="328" xlink:href="#p" />
<use x="88" y="344" xlink:href="#p" />
<use x="88" y="352" xlink:href="#p" />
<use x="96" y="32" xlink:href="#p" />
<use x="96" y="48" xlink:href="#p" />
<use x="96" y="56" xlink:href="#p" />
<use x="96" y="64" xlink:href="#p" />
<use x="96" y="80" xlink:href="#p" />
<use x="96" y="96" xlink:href="#p" />
<use x="96" y="104" xlink:href="#p" />
<use x="96" y="112" xlink:href="#p" />
<use x="96" y="120" xlink:href="#p" />
<use x="96" y="136" xlink:href="#p" />
<use x="96" y="168" xlink:href="#p" />
<use x="96" y="176" xlink:href="#p" />
<use x="96" y="192" xlink:href="#p" />
<use x="96" y="200" xlink:href="#p" />
<use x="96" y="208" xlink:href="#p" />
<use x="96" y="216" xlink:href="#p" />
<use x="96" y="224" xlink:href="#p" />
<use x="96" y="232" xlink:href="#p" />
<use x="96" y="240" xlink:href="#p" />
<use x="96" y="264" xlink:href="#p" />
<use x="96" y="272" xlink:href="#p" />
<use x="96" y="296" xlink:href="#p" />
<use x="96" y="304" xlink:href="#p" />
<use x="96" y="352" xlink:href="#p" />
<use x="96" y="360" xlink:href="#p" />
<use x="96" y="392" xlink:href="#p" />
<use x="96" y="400" xlink:href="#p" />
<use x="96" y="408" xlink:href="#p" />
<use x="96" y="416" xlink:href="#p" />
<use x="104" y="40" xlink:href="#p" />
<use x="104" y="112" xlink:href="#p" />
<use x="104" y="120" xlink:href="#p" />
<use x="104" y="152" xlink:href="#p" />
<use x="104" y="160" xlink:href="#p" />
<use x="104" y="168" xlink:href="#p" />
<use x="104" y="176" xlink:href="#p" />
<use x="104" y="184" xlink:href="#p" />
<use x="104" y="200" xlink:href="#p" />
<use x="104" y="208" xlink:href="#p" />
<use x="104" y="216" xlink:href="#p" />
<use x="104" y="248" xlink:href="#p" />
<use x="104" y="264" xlink:href="#p" />
<use x="104" y="328" xlink:href="#p" />
<use x="104" y="336" xlink:href="#p" />
<use x="104" y="344" xlink:href="#p" />
<use x="104" y="352" xlink:href="#p" />
<use x="104" y="392" xlink:href="#p" />
<use x="104" y="400" xlink:href="#p" />
<use x="104" y="416" xlink:href="#p" />
<use x="112" y="32" xlink:href="#p" />
<use x="112" y="80" xlink:href="#p" />
<use x="112" y="88" xlink:href="#p" />
<use x="112" y="104" xlink:href="#p" />
<use x="112" y="112" xlink:href="#p" />
<use x="112" y="128" xlink:href="#p" />
<use x="112" y="144" xlink:href="#p" />
<use x="112" y="152" xlink:href="#p" />
<use x="112" y="168" xlink:href="#p" />
<use x="112" y="184" xlink:href="#p" />
<use x="112" y="200" xlink:href="#p" />
<use x="112" y="216" xlink:href="#p" />
<use x="112" y="224" xlink:href="#p" />
<use x="112" y="248" xlink:href="#p" />
<use x="112" y="256" xlink:href="#p" />
<use x="112" y="264" xlink:href="#p" />
<use x="112" y="280" xlink:href="#p" />
<use x="112" y="288" xlink:href="#p" />
<use x="112" y="296" xlink:href="#p" />
<use x="112" y="304" xlink:href="#p" />
<use x="112" y="320" xlink:href="#p" />
<use x="112" y="336" xlink:href="#p" />
<use x="112" y="344" xlink:href="#p" />
<use x="112" y="352" xlink:href="#p" />
<use x="112" y="368" xlink:href="#p" />
<use x="112" y="376" xlink:href="#p" />
<use x="112" y="384" xlink:href="#p" />
<use x="112" y="408" xlink:href="#p" />
<use x="112" y="416" xlink:href="#p" />
<use x="120" y="32" xlink:href="#p" />
<use x="120" y="72" xlink:href="#p" />
<use x="120" y="96" xlink:href="#p" />
<use x="120" y="104" xlink:href="#p" />
<use x="120" y="128" xlink:href="#p" />
<use x="120" y="136" xlink:href="#p" />
<use x="120" y="144" xlink:href="#p" />
<use x="120" y="176" xlink:href="#p" />
<use x="120" y="208" xlink:href="#p" />
<use x="120" y="224" xlink:href="#p" />
<use x="120" y="240" xlink:href="#p" />
<use x="120" y="248" xlink:href="#p" />
<use x="120" y="256" xlink:href="#p" />
<use x="120" y="264" xlink:href="#p" />
<use x="120" y="272" xlink:href="#p" />
<use x="120" y="280" xlink:href="#p" />
<use x="120" y="296" xlink:href="#p" />
<use x="120" y="312" xlink:href="#p" />
<use x="120" y="320" xlink:href="#p" />
<use x="120" y="328" xlink:href="#p" />
<use x="120" y="336" xlink:href="#p" />
<use x="120" y="376" xlink:href="#p" />
<use x="120" y="392" xlink:href="#p" />
<use x="120" y="400" xlink:href="#p" />
<use x="120" y="408" xlink:href="#p" />
<use x="120" y="416" xlink:href="#p" />
<use x="128" y="48" xlink:href="#p" />
<use x="128" y="56" xlink:href="#p" />
<use x="128" y="64" xlink:href="#p" />
<use x="128" y="72" xlink:href="#p" />
<use x="128" y="80" xlink:href="#p" />
<use x="128" y="112" xlink:href="#p" />
<use x="128" y="120" xlink:href="#p" />
<use x="128" y="136" xlink:href="#p" />
<use x="128" y="152" xlink:href="#p" />
<use x="128" y="160" xlink:href="#p" />
<use x="128" y="168" xlink:href="#p" />
<use x="128" y="216" xlink:href="#p" />
<use x="128" y="224" xlink:href="#p" />
<use x="128" y="232" xlink:href="#p" />
<use x="128" y="240" xlink:href="#p" />
<use x="128" y="248" xlink:href="#p" />
<use x="128" y="256" xlink:href="#p" />
<use x="128" y="264" xlink:href="#p" />
<use x="128" y="280" xlink:href="#p" />
<use x="128" y="288" xlink:href="#p" />
<use x="128" y="304" xlink:href="#p" />
<use x="128" y="312" xlink:href="#p" />
<use x="128" y="320" xlink:href="#p" />
<use x="128" y="344" xlink:href="#p" />
<use x="128" y="352" xlink:href="#p" />
<use x="128" y="400" xlink:href="#p" />
<use x="128" y="408" xlink:href="#p" />
<use x="136" y="40" xlink:href="#p" />
<use x="136" y="48" xlink:href="#p" />
<use x="136" y="56" xlink:href="#p" />
<use x="136" y="136" xlink:href="#p" />
<use x="136" y="160" xlink:href="#p" />
<use x="136" y="168" xlink:href="#p" />
<use x="136" y="176" xlink:href="#p" />
<use x="136" y="216" xlink:href="#p" />
<use x="136" y="232" xlink:href="#p" />
<use x="136" y="240" xlink:href="#p" />
<use x="136" y="248" xlink:href="#p" />
<use x="136" y="280" xlink:href="#p" />
<use x="136" y="288" xlink:href="#p" />
<use x="136" y="296" xlink:href="#p" />
<use x="136" y="304" xlink:href="#p" />
<use x="136" y="312" xlink:href="#p" />
<use x="136" y="320" xlink:href="#p" />
<use x="136" y="352" xlink:href="#p" />
<use x="136" y="360" xlink:href="#p" />
<use x="136" y="376" xlink:href="#p" />
<use x="136" y="384" xlink:href="#p" />
<use x="136" y="392" xlink:href="#p" />
<use x="136" y="400" xlink:href="#p" />
<use x="136" y="408" xlink:href="#p" />
<use x="144" y="32" xlink:href="#p" />
<use x="144" y="48" xlink:href="#p" />
<use x="144" y="56" xlink:href="#p" />
<use x="144" y="64" xlink:href="#p" />
<use x="144" y="80" xlink:href="#p" />
<use x="144" y="88" xlink:href="#p" />
<use x="144" y="104" xlink:href="#p" />
<use x="144" y="112" xlink:href="#p" />
<use x="144" y="136" xlink:href="#p" />
<use x="144" y="160" xlink:href="#p" />
<use x="144" y="168" xlink:href="#p" />
<use x="144" y="176" xlink:href="#p" />
<use x="144" y="192" xlink:href="#p" />
<use x="144" y="208" xlink:href="#p" />
<use x="144" y="216" xlink:href="#p" />
<use x="144" y="256" xlink:href="#p" />
<use x="144" y="296" xlink:href="#p" />
<use x="144" y="312" xlink:href="#p" />
<use x="144" y="320" xlink:href="#p" />
<use x="144" y="328" xlink:href="#p" />
<use x="144" y="352" xlink:href="#p" />
<use x="144" y="360" xlink:href="#p" />
<use x="144" y="376" xlink:href="#p" />
<use x="144" y="400" xlink:href="#p" />
<use x="144" y="408" xlink:href="#p" />
<use x="152" y="40" xlink:href="#p" />
<use x="152" y="72" xlink:href="#p" />
<use x="152" y="96" xlink:href="#p" />
<use x="152" y="104" xlink:href="#p" />
<use x="152" y="128" xlink:href="#p" />
<use x="152" y="136" xlink:href="#p" />
<use x="152" y="160" xlink:href="#p" />
<use x="152" y="176" xlink:href="#p" />
<use x="152" y="192" xlink:href="#p" />
<use x="152" y="200" xlink:href="#p" />
<use x="152" y="208" xlink:href="#p" />
<use x="152" y="248" xlink:href="#p" />
<use x="152" y="264" xlink:href="#p" />
<use x="152" y="272" xlink:href="#p" />
<use x="152" y="280" xlink:href="#p" />
<use x="152" y="288" xlink:href="#p" />
<use x="152" y="296" xlink:href="#p" />
<use x="152" y="312" xlink:href="#p" />
<use x="152" y="336" xlink:href="#p" />
<use x="152" y="344" xlink:href="#p" />
<use x="152" y="352" xlink:href="#p" />
<use x="152" y="368" xlink:href="#p" />
<use x="152" y="376" xlink:href="#p" />
<use x="152" y="408" xlink:href="#p" />
<use x="160" y="48" xlink:href="#p" />
<use x="160" y="72" xlink:href="#p" />
<use x="160" y="80" xlink:href="#p" />
<use x="160" y="136" xlink:href="#p" />
<use x="160" y="152" xlink:href="#p" />
<use x="160" y="160" xlink:href="#p" />
<use x="160" y="168" xlink:href="#p" />
<use x="160" y="176" xlink:href="#p" />
<use x="160" y="192" xlink:href="#p" />
<use x="160" y="216" xlink:href="#p" />
<use x="160" y="224" xlink:href="#p" />
<use x="160" y="240" xlink:href="#p" />
<use x="160" y="248" xlink:href="#p" />
<use x="160" y="272" xlink:href="#p" />
<use x="160" y="280" xlink:href="#p" />
<use x="160" y="304" xlink:href="#p" />
<use x="160" y="312" xlink:href="#p" />
<use x="160" y="336" xlink:href="#p" />
<use x="160" y="352" xlink:href="#p" />
<use x="160" y="360" xlink:href="#p" />
<use x="160" y="384" xlink:href="#p" />
<use x="160" y="392" xlink:href="#p" />
<use x="160" y="400" xlink:href="#p" />
<use x="160" y="416" xlink:href="#p" />
<use x="168" y="32" xlink:href="#p" />
<use x="168" y="56" xlink:href="#p" />
<use x="168" y="64" xlink:href="#p" />
<use x="168" y="88" xlink:href="#p" />
<use x="168" y="96" xlink:href="#p" />
<use x="168" y="112" xlink:href="#p" />
<use x="168" y="120" xlink:href="#p" />
<use x="168" y="144" xlink:href="#p" />
<use x="168" y="176" xlink:href="#p" />
<use x="168" y="184" xlink:href="#p" />
<use x="168" y="192" xlink:href="#p" />
<use x="168" y="208" xlink:href="#p" />
<use x="168" y="216" xlink:href="#p" />
<use x="168" y="224" xlink:href="#p" />
<use x="168" y="232" xlink:href="#p" />
<use x="168" y="248" xlink:href="#p" />
<use x="168" y="256" xlink:href="#p" />
<use x="168" y="264" xlink:href="#p" />
<use x="168" y="296" xlink:href="#p" />
<use x="168" y="320" xlink:href="#p" />
<use x="168" y="328" xlink:href="#p" />
<use x="168" y="344" xlink:href="#p" />
<use x="168" y="352" xlink:href="#p" />
<use x="168" y="360" xlink:href="#p" />
<use x="168" y="392" xlink:href="#p" />
<use x="168" y="400" xlink:href="#p" />
<use x="176" y="40" xlink:href="#p" />
<use x="176" y="48" xlink:href="#p" />
<use x="176" y="80" xlink:href="#p" />
<use x="176" y="128" xlink:href="#p" />
<use x="176" y="152" xlink:href="#p" />
<use x="176" y="168" xlink:href="#p" />
<use x="176" y="184" xlink:href="#p" />
<use x="176" y="192" xlink:href="#p" />
<use x="176" y="200" xlink:href="#p" />
<use x="176" y="224" xlink:href="#p" />
<use x="176" y="232" xlink:href="#p" />
<use x="176" y="248" xlink:href="#p" />
<use x="176" y="272" xlink:href="#p" />
<use x="176" y="304" xlink:href="#p" />
<use x="176" y="312" xlink:href="#p" />
<use x="176" y="360" xlink:href="#p" />
<use x="176" y="368" xlink:href="#p" />
<use x="176" y="392" xlink:href="#p" />
<use x="176" y="408" xlink:href="#p" />
<use x="176" y="416" xlink:href="#p" />
<use x="184" y="56" xlink:href="#p" />
<use x="184" y="96" xlink:href="#p" />
<use x="184" y="104" xlink:href="#p" />
<use x="184" y="120" xlink:href="#p" />
<use x="184" y="136" xlink:href="#p" />
<use x="184" y="144" xlink:href="#p" />
<use x="184" y="152" xlink:href="#p" />
<use x="184" y="160" xlink:href="#p" />
<use x="184" y="168" xlink:href="#p" />
<use x="184" y="176" xlink:href="#p" />
<use x="184" y="208" xlink:href="#p" />
<use x="184" y="216" xlink:href="#p" />
<use x="184" y="224" xlink:href="#p" />
<use x="184" y="280" xlink:href="#p" />
<use x="184" y="288" xlink:href="#p" />
<use x="184" y="296" xlink:href="#p" />
<use x="184" y="312" xlink:href="#p" />
<use x="184" y="320" xlink:href="#p" />
<use x="184" y="352" xlink:href="#p" />
<use x="184" y="360" xlink:href="#p" />
<use x="184" y="376" xlink:href="#p" />
<use x="184" y="384" xlink:href="#p" />
<use x="184" y="392" xlink:href="#p" />
<use x="184" y="416" xlink:href="#p" />
<use x="192" y="64" xlink:href="#p" />
<use x="192" y="80" xlink:href="#p" />
<use x="192" y="88" xlink:href="#p" />
<use x="192" y="96" xlink:href="#p" />
<use x="192" y="144" xlink:href="#p" />
<use x="192" y="152" xlink:href="#p" />
<use x="192" y="176" xlink:href="#p" />
<use x="192" y="184" xlink:href="#p" />
<use x="192" y="208" xlink:href="#p" />
<use x="192" y="224" xlink:href="#p" />
<use x="192" y="232" xlink:href="#p" />
<use x="192" y="256" xlink:href="#p" />
<use x="192" y="264" xlink:href="#p" />
<use x="192" y="272" xlink:href="#p" />
<use x="192" y="288" xlink:href="#p" />
<use x="192" y="304" xlink:href="#p" />
<use x="192" y="328" xlink:href="#p" />
<use x="192" y="368" xlink:href="#p" />
<use x="192" y="376" xlink:href="#p" />
<use x="192" y="392" xlink:href="#p" />
<use x="192" y="408" xlink:href="#p" />
<use x="192" y="416" xlink:href="#p" />
<use x="200" y="32" xlink:href="#p" />
<use x="200" y="40" xlink:href="#p" />
<use x="200" y="96" xlink:href="#p" />
<use x="200" y="112" xlink:href="#p" />
<use x="200" y="136" xlink:href="#p" />
<use x="200" y="176" xlink:href="#p" />
<use x="200" y="192" xlink:href="#p" />
<use x="200" y="200" xlink:href="#p" />
<use x="200" y="216" xlink:href="#p" />
<use x="200" y="224" xlink:href="#p" />
<use x="200" y="280" xlink:href="#p" />
<use x="200" y="288" xlink:href="#p" />
<use x="200" y="336" xlink:href="#p" />
<use x="200" y="344" xlink:href="#p" />
<use x="200" y="400" xlink:href="#p" />
<use x="200" y="416" xlink:href="#p" />
<use x="208" y="40" xlink:href="#p" />
<use x="208" y="48" xlink:href="#p" />
<use x="208" y="64" xlink:href="#p" />
<use x="208" y="72" xlink:href="#p" />
<use x="208" y="80" xlink:href="#p" />
<use x="208" y="88" xlink:href="#p" />
<use x="208" y="96" xlink:href="#p" />
<use x="208" y="120" xlink:href="#p" />
<use x="208" y="128" xlink:href="#p" />
<use x="208" y="136" xlink:href="#p" />
<use x="208" y="152" xlink:href="#p" />
<use x="208" y="168" xlink:href="#p" />
<use x="208" y="208" xlink:href="#p" />
<use x="208" y="216" xlink:href="#p" />
<use x="208" y="224" xlink:href="#p" />
<use x="208" y="232" xlink:href="#p" />
<use x="208" y="240" xlink:href="#p" />
<use x="208" y="248" xlink:href="#p" />
<use x="208" y="280" xlink:href="#p" />
<use x="208" y="304" xlink:href="#p" />
<use x="208" y="312" xlink:href="#p" />
<use x="208" y="328" xlink:href="#p" />
<use x="208" y="352" xlink:href="#p" />
<use x="208" y="360" xlink:href="#p" />
<use x="208" y="368" xlink:href="#p" />
<use x="208" y="376" xlink:href="#p" />
<use x="208" y="384" xlink:href="#p" />
<use x="208" y="408" xlink:href="#p" />
<use x="216" y="32" xlink:href="#p" />
<use x="216" y="56" xlink:href="#p" />
<use x="216" y="64" xlink:href="#p" />
<use x="216" y="96" xlink:href="#p" />
<use x="216" y="120" xlink:href="#p" />
<use x="216" y="160" xlink:href="#p" />
<use x="216" y="176" xlink:href="#p" />
<use x="216" y="208" xlink:href="#p" />
<use x="216" y="240" xlink:href="#p" />
<use x="216" y="248" xlink:href="#p" />
<use x="216" y="280" xlink:href="#p" />
<use x="216" y="288" xlink:href="#p" />
<use x="216" y="304" xlink:href="#p" />
<use x="216" y="320" xlink:href="#p" />
<use x="216" y="328" xlink:href="#p" />
<use x="216" y="336" xlink:href="#p" />
<use x="216" y="352" xlink:href="#p" />
<use x="216" y="384" xlink:href="#p" />
<use x="216" y="392" xlink:href="#p" />
<use x="216" y="400" xlink:href="#p" />
<use x="216" y="408" xlink:href="#p" />
<use x="216" y="416" xlink:href="#p" />
<use x="224" y="32" xlink:href="#p" />
<use x="224" y="64" xlink:href="#p" />
<use x="224" y="80" xlink:href="#p" />
<use x="224" y="96" xlink:href="#p" />
<use x="224" y="112" xlink:href="#p" />
<use x="224" y="120" xlink:href="#p" />
<use x="224" y="128" xlink:href="#p" />
<use x="224" y="136" xlink:href="#p" />
<use x="224" y="152" xlink:href="#p" />
<use x="224" y="168" xlink:href="#p" />
<use x="224" y="176" xlink:href="#p" />
<use x="224" y="184" xlink:href="#p" />
<use x="224" y="208" xlink:href="#p" />
<use x="224" y="224" xlink:href="#p" />
<use x="224" y="240" xlink:href="#p" />
<use x="224" y="248" xlink:href="#p" />
<use x="224" y="256" xlink:href="#p" />
<use x="224" y="272" xlink:href="#p" />
<use x="224" y="280" xlink:href="#p" />
<use x="224" y="288" xlink:href="#p" />
<use x="224" y="296" xlink:href="#p" />
<use x="224" y="304" xlink:href="#p" />
<use x="224" y="344" xlink:href="#p" />
<use x="224" y="352" xlink:href="#p" />
<use x="224" y="368" xlink:href="#p" />
<use x="224" y="384" xlink:href="#p" />
<use x="224" y="416" xlink:href="#p" />
<use x="232" y="32" xlink:href="#p" />
<use x="232" y="48" xlink:href="#p" />
<use x="232" y="64" xlink:href="#p" />
<use x="232" y="96" xlink:href="#p" />
<use x="232" y="112" xlink:href="#p" />
<use x="232" y="120" xlink:href="#p" />
<use x="232" y="128" xlink:href="#p" />
<use x="232" y="136" xlink:href="#p" />
<use x="232" y="144" xlink:href="#p" />
<use x="232" y="160" xlink:href="#p" />
<use x="232" y="168" xlink:href="#p" />
<use x="232" y="176" xlink:href="#p" />
<use x="232" y="192" xlink:href="#p" />
<use x="232" y="208" xlink:href="#p" />
<use x="232" y="240" xlink:href="#p" />
<use x="232" y="248" xlink:href="#p" />
<use x="232" y="264" xlink:href="#p" />
<use x="232" y="280" xlink:href="#p" />
<use x="232" y="288" xlink:href="#p" />
<use x="232" y="296" xlink:href="#p" />
<use x="232" y="320" xlink:href="#p" />
<use x="232" y="328" xlink:href="#p" />
<use x="232" y="352" xlink:href="#p" />
<use x="232" y="384" xlink:href="#p" />
<use x="232" y="400" xlink:href="#p" />
<use x="240" y="56" xlink:href="#p" />
<use x="240" y="64" xlink:href="#p" />
<use x="240" y="72" xlink:href="#p" />
<use x="240" y="80" xlink:href="#p" />
<use x="240" y="88" xlink:href="#p" />
<use x="240" y="96" xlink:href="#p" />
<use x="240" y="136" xlink:href="#p" />
<use x="240" y="144" xlink:href="#p" />
<use x="240" y="160" xlink:href="#p" />
<use x="240" y="176" xlink:href="#p" />
<use x="240" y="184" xlink:href="#p" />
<use x="240" y="192" xlink:href="#p" />
<use x="240" y="208" xlink:href="#p" />
<use x="240" y="216" xlink:href="#p" />
<use x="240" y="224" xlink:href="#p" />
<use x="240" y="232" xlink:href="#p" />
<use x="240" y="240" xlink:href="#p" />
<use x="240" y="248" xlink:href="#p" />
<use x="240" y="296" xlink:href="#p" />
<use x="240" y="304" xlink:href="#p" />
<use x="240" y="312" xlink:href="#p" />
<use x="240" y="328" xlink:href="#p" />
<use x="240" y="344" xlink:href="#p" />
<use x="240" y="352" xlink:href="#p" />
<use x="240" y="360" xlink:href="#p" />
<use x="240" y="368" xlink:href="#p" />
<use x="240" y="376" xlink:href="#p" />
<use x="240" y="384" xlink:href="#p" />
<use x="240" y="416" xlink:href="#p" />
<use x="248" y="72" xlink:href="#p" />
<use x="248" y="96" xlink:href="#p" />
<use x="248" y="104" xlink:href="#p" />
<use x="248" y="112" xlink:href="#p" />
<use x="248" y="136" xlink:href="#p" />
<use x="248" y="144" xlink:href="#p" />
<use x="248" y="184" xlink:href="#p" />
<use x="248" y="200" xlink:href="#p" />
<use x="248" y="272" xlink:href="#p" />
<use x="248" y="280" xlink:href="#p" />
<use x="248" y="304" xlink:href="#p" />
<use x="248" y="360" xlink:href="#p" />
<use x="248" y="376" xlink:href="#p" />
<use x="248" y="408" xlink:href="#p" />
<use x="248" y="416" xlink:href="#p" />
<use x="256" y="32" xlink:href="#p" />
<use x="256" y="64" xlink:href="#p" />
<use x="256" y="72" xlink:href="#p" />
<use x="256" y="80" xlink:href="#p" />
<use x="256" y="88" xlink:href="#p" />
<use x="256" y="96" xlink:href="#p" />
<use x="256" y="136" xlink:href="#p" />
<use x="256" y="144" xlink:href="#p" />
<use x="256" y="152" xlink:href="#p" />
<use x="256" y="168" xlink:href="#p" />
<use x="256" y="184" xlink:href="#p" />
<use x="256" y="192" xlink:href="#p" />
<use x="256" y="200" xlink:href="#p" />
<use x="256" y="232" xlink:href="#p" />
<use x="256" y="240" xlink:href="#p" />
<use x="256" y="248" xlink:href="#p" />
<use x="256" y="280" xlink:href="#p" />
<use x="256" y="288" xlink:href="#p" />
<use x="256" y="336" xlink:href="#p" />
<use x="256" y="344" xlink:href="#p" />
<use x="256" y="360" xlink:href="#p" />
<use x="256" y="376" xlink:href="#p" />
<use x="256" y="384" xlink:href="#p" />
<use x="264" y="32" xlink:href="#p" />
<use x="264" y="40" xlink:href="#p" />
<use x="264" y="64" xlink:href="#p" />
<use x="264" y="72" xlink:href="#p" />
<use x="264" y="88" xlink:href="#p" />
<use x="264" y="120" xlink:href="#p" />
<use x="264" y="128" xlink:href="#p" />
<use x="264" y="152" xlink:href="#p" />
<use x="264" y="168" xlink:href="#p" />
<use x="264" y="200" xlink:href="#p" />
<use x="264" y="208" xlink:href="#p" />
<use x="264" y="216" xlink:href="#p" />
<use x="264" y="232" xlink:href="#p" />
<use x="264" y="240" xlink:href="#p" />
<use x="264" y="272" xlink:href="#p" />
<use x="264" y="312" xlink:href="#p" />
<use x="264" y="320" xlink:href="#p" />
<use x="264" y="352" xlink:href="#p" />
<use x="264" y="368" xlink:href="#p" />
<use x="264" y="376" xlink:href="#p" />
<use x="264" y="384" xlink:href="#p" />
<use x="264" y="392" xlink:href="#p" />
<use x="264" y="400" xlink:href="#p" />
<use x="264" y="408" xlink:href="#p" />
<use x="272" y="32" xlink:href="#p" />
<use x="272" y="40" xlink:href="#p" />
<use x="272" y="72" xlink:href="#p" />
<use x="272" y="80" xlink:href="#p" />
<use x="272" y="96" xlink:href="#p" />
<use x="272" y="104" xlink:href="#p" />
<use x="272" y="112" xlink:href="#p" />
<use x="272" y="128" xlink:href="#p" />
<use x="272" y="144" xlink:href="#p" />
<use x="272" y="152" xlink:href="#p" />
<use x="272" y="160" xlink:href="#p" />
<use x="272" y="200" xlink:href="#p" />
<use x="272" y="208" xlink:href="#p" />
<use x="272" y="240" xlink:href="#p" />
<use x="272" y="248" xlink:href="#p" />
<use x="272" y="256" xlink:href="#p" />
<use x="272" y="288" xlink:href="#p" />
<use x="272" y="296" xlink:href="#p" />
<use x="272" y="304" xlink:href="#p" />
<use x="272" y="336" xlink:href="#p" />
<use x="272" y="344" xlink:href="#p" />
<use x="272" y="352" xlink:href="#p" />
<use x="272" y="384" xlink:href="#p" />
<use x="272" y="392" xlink:href="#p" />
<use x="272" y="400" xlink:href="#p" />
<use x="280" y="32" xlink:href="#p" />
<use x="280" y="40" xlink:href="#p" />
<use x="280" y="48" xlink:href="#p" />
<use x="280" y="56" xlink:href="#p" />
<use x="280" y="88" xlink:href="#p" />
<use x="280" y="96" xlink:href="#p" />
<use x="280" y="112" xlink:href="#p" />
<use x="280" y="120" xlink:href="#p" />
<use x="280" y="128" xlink:href="#p" />
<use x="280" y="152" xlink:href="#p" />
<use x="280" y="184" xlink:href="#p" />
<use x="280" y="192" xlink:href="#p" />
<use x="280" y="200" xlink:href="#p" />
<use x="280" y="208" xlink:href="#p" />
<use x="280" y="232" xlink:href="#p" />
<use x="280" y="240" xlink:href="#p" />
<use x="280" y="248" xlink:href="#p" />
<use x="280" y="264" xlink:href="#p" />
<use x="280" y="328" xlink:href="#p" />
<use x="280" y="344" xlink:href="#p" />
<use x="280" y="360" xlink:href="#p" />
<use x="280" y="376" xlink:href="#p" />
<use x="280" y="384" xlink:href="#p" />
<use x="280" y="400" xlink:href="#p" />
<use x="280" y="408" xlink:href="#p" />
<use x="280" y="416" xlink:href="#p" />
<use x="288" y="32" xlink:href="#p" />
<use x="288" y="40" xlink:href="#p" />
<use x="288" y="48" xlink:href="#p" />
<use x="288" y="64" xlink:href="#p" />
<use x="288" y="80" xlink:href="#p" />
<use x="288" y="112" xlink:href="#p" />
<use x="288" y="120" xlink:href="#p" />
<use x="288" y="136" xlink:href="#p" />
<use x="288" y="152" xlink:href="#p" />
<use x="288" y="160" xlink:href="#p" />
<use x="288" y="200" xlink:href="#p" />
<use x="288" y="208" xlink:href="#p" />
<use x="288" y="216" xlink:href="#p" />
<use x="288" y="248" xlink:href="#p" />
<use x="288" y="256" xlink:href="#p" />
<use x="288" y="312" xlink:href="#p" />
<use x="288" y="344" xlink:href="#p" />
<use x="288" y="352" xlink:href="#p" />
<use x="288" y="360" xlink:href="#p" />
<use x="288" y="400" xlink:href="#p" />
<use x="288" y="408" xlink:href="#p" />
<use x="296" y="32" xlink:href="#p" />
<use x="296" y="40" xlink:href="#p" />
<use x="296" y="48" xlink:href="#p" />
<use x="296" y="56" xlink:href="#p" />
<use x="296" y="64" xlink:href="#p" />
<use x="296" y="96" xlink:href="#p" />
<use x="296" y="104" xlink:href="#p" />
<use x="296" y="112" xlink:href="#p" />
<use x="296" y="144" xlink:href="#p" />
<use x="296" y="160" xlink:href="#p" />
<use x="296" y="200" xlink:href="#p" />
<use x="296" y="208" xlink:href="#p" />
<use x="296" y="216" xlink:href="#p" />
<use x="296" y="240" xlink:href="#p" />
<use x="296" y="280" xlink:href="#p" />
<use x="296" y="296" xlink:href="#p" />
<use x="296" y="304" xlink:href="#p" />
<use x="296" y="312" xlink:href="#p" />
<use x="296" y="320" xlink:href="#p" />
<use x="296" y="328" xlink:href="#p" />
<use x="296" y="360" xlink:href="#p" />
<use x="296" y="368" xlink:href="#p" />
<use x="296" y="408" xlink:href="#p" />
<use x="296" y="416" xlink:href="#p" />
<use x="304" y="40" xlink:href="#p" />
<use x="304" y="48" xlink:href="#p" />
<use x="304" y="56" xlink:href="#p" />
<use x="304" y="80" xlink:href="#p" />
<use x="304" y="96" xlink:href="#p" />
<use x="304" y="112" xlink:href="#p" />
<use x="304" y="120" xlink:href="#p" />
<use x="304" y="160" xlink:href="#p" />
<use x="304" y="168" xlink:href="#p" />
<use x="304" y="176" xlink:href="#p" />
<use x="304" y="208" xlink:href="#p" />
<use x="304" y="216" xlink:href="#p" />
<use x="304" y="256" xlink:href="#p" />
<use x="304" y="264" xlink:href="#p" />
<use x="304" y="272" xlink:href="#p" />
<use x="304" y="288" xlink:href="#p" />
<use x="304" y="304" xlink:href="#p" />
<use x="304" y="312" xlink:href="#p" />
<use x="304" y="320" xlink:href="#p" />
<use x="304" y="360" xlink:href="#p" />
<use x="304" y="368" xlink:href="#p" />
<use x="304" y="400" xlink:href="#p" />
<use x="304" y="408" xlink:href="#p" />
<use x="304" y="416" xlink:href="#p" />
<use x="312" y="56" xlink:href="#p" />
<use x="312" y="88" xlink:href="#p" />
<use x="312" y="96" xlink:href="#p" />
<use x="312" y="112" xlink:href="#p" />
<use x="312" y="120" xlink:href="#p" />
<use x="312" y="144" xlink:href="#p" />
<use x="312" y="152" xlink:href="#p" />
<use x="312" y="160" xlink:href="#p" />
<use x="312" y="184" xlink:href="#p" />
<use x="312" y="192" xlink:href="#p" />
<use x="312" y="200" xlink:href="#p" />
<use x="312" y="208" xlink:href="#p" />
<use x="312" y="216" xlink:href="#p" />
<use x="312" y="248" xlink:href="#p" />
<use x="312" y="256" xlink:href="#p" />
<use x="312" y="264" xlink:href="#p" />
<use x="312" y="272" xlink:href="#p" />
<use x="312" y="296" xlink:href="#p" />
<use x="312" y="320" xlink:href="#p" />
<use x="312" y="336" xlink:href="#p" />
<use x="312" y="344" xlink:href="#p" />
<use x="312" y="352" xlink:href="#p" />
<use x="312" y="368" xlink:href="#p" />
<use x="312" y="400" xlink:href="#p" />
<use x="312" y="416" xlink:href="#p" />
<use x="320" y="32" xlink:href="#p" />
<use x="320" y="48" xlink:href="#p" />
<use x="320" y="56" xlink:href="#p" />
<use x="320" y="72" xlink:href="#p" />
<use x="320" y="80" xlink:href="#p" />
<use x="320" y="88" xlink:href="#p" />
<use x="320" y="120" xlink:href="#p" />
<use x="320" y="128" xlink:href="#p" />
<use x="320" y="176" xlink:href="#p" />
<use x="320" y="184" xlink:href="#p" />
<use x="320" y="200" xlink:href="#p" />
<use x="320" y="216" xlink:href="#p" />
<use x="320" y="224" xlink:href="#p" />
<use x="320" y="232" xlink:href="#p" />
<use x="320" y="272" xlink:href="#p" />
<use x="320" y="280" xlink:href="#p" />
<use x="320" y="312" xlink:href="#p" />
<use x="320" y="320" xlink:href="#p" />
<use x="320" y="328" xlink:href="#p" />
<use x="320" y="360" xlink:href="#p" />
<use x="320" y="368" xlink:href="#p" />
<use x="320" y="376" xlink:href="#p" />
<use x="320" y="392" xlink:href="#p" />
<use x="320" y="400" xlink:href="#p" />
<use x="320" y="408" xlink:href="#p" />
<use x="320" y="416" xlink:href="#p" />
<use x="328" y="40" xlink:href="#p" />
<use x="328" y="48" xlink:href="#p" />
<use x="328" y="64" xlink:href="#p" />
<use x="328" y="96" xlink:href="#p" />
<use x="328" y="112" xlink:href="#p" />
<use x="328" y="120" xlink:href="#p" />
<use x="328" y="128" xlink:href="#p" />
<use x="328" y="152" xlink:href="#p" />
<use x="328" y="168" xlink:href="#p" />
<use x="328" y="176" xlink:href="#p" />
<use x="328" y="208" xlink:href="#p" />
<use x="328" y="224" xlink:href="#p" />
<use x="328" y="232" xlink:href="#p" />
<use x="328" y="240" xlink:href="#p" />
<use x="328" y="248" xlink:href="#p" />
<use x="328" y="256" xlink:href="#p" />
<use x="328" y="264" xlink:href="#p" />
<use x="328" y="272" xlink:href="#p" />
<use x="328" y="280" xlink:href="#p" />
<use x="328" y="296" xlink:href="#p" />
<use x="328" y="312" xlink:href="#p" />
<use x="328" y="352" xlink:href="#p" />
<use x="328" y="360" xlink:href="#p" />
<use x="328" y="368" xlink:href="#p" />
<use x="328" y="376" xlink:href="#p" />
<use x="328" y="400" xlink:href="#p" />
<use x="328" y="408" xlink:href="#p" />
<use x="328" y="416" xlink:href="#p" />
<use x="336" y="40" xlink:href="#p" />
<use x="336" y="72" xlink:href="#p" />
<use x="336" y="80" xlink:href="#p" />
<use x="336" y="88" xlink:href="#p" />
<use x="336" y="120" xlink:href="#p" />
<use x="336" y="136" xlink:href="#p" />
<use x="336" y="144" xlink:href="#p" />
<use x="336" y="160" xlink:href="#p" />
<use x="336" y="176" xlink:href="#p" />
<use x="336" y="184" xlink:href="#p" />
<use x="336" y="224" xlink:href="#p" />
<use x="336" y="232" xlink:href="#p" />
<use x="336" y="240" xlink:href="#p" />
<use x="336" y="272" xlink:href="#p" />
<use x="336" y="280" xlink:href="#p" />
<use x="336" y="312" xlink:href="#p" />
<use x="336" y="328" xlink:href="#p" />
<use x="336" y="336" xlink:href="#p" />
<use x="336" y="368" xlink:href="#p" />
<use x="336" y="376" xlink:href="#p" />
<use x="336" y="384" xlink:href="#p" />
<use x="344" y="40" xlink:href="#p" />
<use x="344" y="48" xlink:href="#p" />
<use x="344" y="56" xlink:href="#p" />
<use x="344" y="96" xlink:href="#p" />
<use x="344" y="104" xlink:href="#p" />
<use x="344" y="112" xlink:href="#p" />
<use x="344" y="128" xlink:href="#p" />
<use x="344" y="136" xlink:href="#p" />
<use x="344" y="144" xlink:href="#p" />
<use x="344" y="152" xlink:href="#p" />
<use x="344" y="168" xlink:href="#p" />
<use x="344" y="176" xlink:href="#p" />
<use x="344" y="184" xlink:href="#p" />
<use x="344" y="192" xlink:href="#p" />
<use x="344" y="200" xlink:href="#p" />
<use x="344" y="224" xlink:href="#p" />
<use x="344" y="240" xlink:href="#p" />
<use x="344" y="272" xlink:href="#p" />
<use x="344" y="280" xlink:href="#p" />
<use x="344" y="296" xlink:href="#p" />
<use x="344" y="312" xlink:href="#p" />
<use x="344" y="320" xlink:href="#p" />
<use x="344" y="328" xlink:href="#p" />
<use x="344" y="368" xlink:href="#p" />
<use x="344" y="408" xlink:href="#p" />
<use x="344" y="416" xlink:href="#p" />
<use x="352" y="32" xlink:href="#p" />
<use x="352" y="40" xlink:href="#p" />
<use x="352" y="48" xlink:href="#p" />
<use x="352" y="80" xlink:href="#p" />
<use x="352" y="120" xlink:href="#p" />
<use x="352" y="128" xlink:href="#p" />
<use x="352" y="144" xlink:href="#p" />
<use x="352" y="160" xlink:href="#p" />
<use x="352" y="168" xlink:href="#p" />
<use x="352" y="176" xlink:href="#p" />
<use x="352" y="208" xlink:href="#p" />
<use x="352" y="216" xlink:href="#p" />
<use x="352" y="224" xlink:href="#p" />
<use x="352" y="232" xlink:href="#p" />
<use x="352" y="240" xlink:href="#p" />
<use x="352" y="272" xlink:href="#p" />
<use x="352" y="288" xlink:href="#p" />
<use x="352" y="296" xlink:href="#p" />
<use x="352" y="304" xlink:href="#p" />
<use x="352" y="312" xlink:href="#p" />
<use x="352" y="320" xlink:href="#p" />
<use x="352" y="352" xlink:href="#p" />
<use x="352" y="360" xlink:href="#p" />
<use x="352" y="368" xlink:href="#p" />
<use x="352" y="376" xlink:href="#p" />
<use x="352" y="384" xlink:href="#p" />
<use x="352" y="392" xlink:href="#p" />
<use x="352" y="408" xlink:href="#p" />
<use x="360" y="96" xlink:href="#p" />
<use x="360" y="104" xlink:href="#p" />
<use x="360" y="112" xlink:href="#p" />
<use x="360" y="120" xlink:href="#p" />
<use x="360" y="136" xlink:href="#p" />
<use x="360" y="144" xlink:href="#p" />
<use x="360" y="152" xlink:href="#p" />
<use x="360" y="160" xlink:href="#p" />
<use x="360" y="176" xlink:href="#p" />
<use x="360" y="192" xlink:href="#p" />
<use x="360" y="200" xlink:href="#p" />
<use x="360" y="208" xlink:href="#p" />
<use x="360" y="240" xlink:href="#p" />
<use x="360" y="256" xlink:href="#p" />
<use x="360" y="264" xlink:href="#p" />
<use x="360" y="288" xlink:href="#p" />
<use x="360" y="304" xlink:href="#p" />
<use x="360" y="312" xlink:href="#p" />
<use x="360" y="336" xlink:href="#p" />
<use x="360" y="352" xlink:href="#p" />
<use x="360" y="384" xlink:href="#p" />
<use x="360" y="416" xlink:href="#p" />
<use x="368" y="32" xlink:href="#p" />
<use x="368" y="40" xlink:href="#p" />
<use x="368" y="48" xlink:href="#p" />
<use x="368" y="56" xlink:href="#p" />
<use x="368" y="64" xlink:href="#p" />
<use x="368" y="72" xlink:href="#p" />
<use x="368" y="80" xlink:href="#p" />
<use x="368" y="104" xlink:href="#p" />
<use x="368" y="112" xlink:href="#p" />
<use x="368" y="128" xlink:href="#p" />
<use x="368" y="144" xlink:href="#p" />
<use x="368" y="152" xlink:href="#p" />
<use x="368" y="160" xlink:href="#p" />
<use x="368" y="200" xlink:href="#p" />
<use x="368" y="208" xlink:href="#p" />
<use x="368" y="224" xlink:href="#p" />
<use x="368" y="240" xlink:href="#p" />
<use x="368" y="256" xlink:href="#p" />
<use x="368" y="272" xlink:href="#p" />
<use x="368" y="280" xlink:href="#p" />
<use x="368" y="296" xlink:href="#p" />
<use x="368" y="312" xlink:href="#p" />
<use x="368" y="320" xlink:href="#p" />
<use x="368" y="328" xlink:href="#p" />
<use x="368" y="352" xlink:href="#p" />
<use x="368" y="368" xlink:href="#p" />
<use x="368" y="384" xlink:href="#p" />
<use x="368" y="392" xlink:href="#p" />
<use x="368" y="400" xlink:href="#p" />
<use x="376" y="32" xlink:href="#p" />
<use x="376" y="80" xlink:href="#p" />
<use x="376" y="120" xlink:href="#p" />
<use x="376" y="128" xlink:href="#p" />
<use x="376" y="144" xlink:href="#p" />
<use x="376" y="160" xlink:href="#p" />
<use x="376" y="168" xlink:href="#p" />
<use x="376" y="200" xlink:href="#p" />
<use x="376" y="208" xlink:href="#p" />
<use x="376" y="240" xlink:href="#p" />
<use x="376" y="256" xlink:href="#p" />
<use x="376" y="264" xlink:href="#p" />
<use x="376" y="272" xlink:href="#p" />
<use x="376" y="280" xlink:href="#p" />
<use x="376" y="288" xlink:href="#p" />
<use x="376" y="296" xlink:href="#p" />
<use x="376" y="320" xlink:href="#p" />
<use x="376" y="336" xlink:href="#p" />
<use x="376" y="352" xlink:href="#p" />
<use x="376" y="384" xlink:href="#p" />
<use x="376" y="400" xlink:href="#p" />
<use x="376" y="416" xlink:href="#p" />
<use x="384" y="32" xlink:href="#p" />
<use x="384" y="48" xlink:href="#p" />
<use x="384" y="56" xlink:href="#p" />
<use x="384" y="64" xlink:href="#p" />
<use x="384" y="80" xlink:href="#p" />
<use x="384" y="96" xlink:href="#p" />
<use x="384" y="104" xlink:href="#p" />
<use x="384" y="112" xlink:href="#p" />
<use x="384" y="120" xlink:href="#p" />
<use x="384" y="152" xlink:href="#p" />
<use x="384" y="160" xlink:href="#p" />
<use x="384" y="176" xlink:href="#p" />
<use x="384" y="200" xlink:href="#p" />
<use x="384" y="208" xlink:href="#p" />
<use x="384" y="216" xlink:href="#p" />
<use x="384" y="224" xlink:href="#p" />
<use x="384" y="232" xlink:href="#p" />
<use x="384" y="240" xlink:href="#p" />
<use x="384" y="272" xlink:href="#p" />
<use x="384" y="280" xlink:href="#p" />
<use x="384" y="288" xlink:href="#p" />
<use x="384" y="320" xlink:href="#p" />
<use x="384" y="328" xlink:href="#p" />
<use x="384" y="336" xlink:href="#p" />
<use x="384" y="352" xlink:href="#p" />
<use x="384" y="360" xlink:href="#p" />
<use x="384" y="368" xlink:href="#p" />
<use x="384" y="376" xlink:href="#p" />
<use x="384" y="384" xlink:href="#p" />
<use x="384" y="392" xlink:href="#p" />
<use x="384" y="400" xlink:href="#p" />
<use x="392" y="32" xlink:href="#p" />
<use x="392" y="48" xlink:href="#p" />
<use x="392" y="56" xlink:href="#p" />
<use x="392" y="64" xlink:href="#p" />
<use x="392" y="80" xlink:href="#p" />
<use x="392" y="96" xlink:href="#p" />
<use x="392" y="136" xlink:href="#p" />
<use x="392" y="176" xlink:href="#p" />
<use x="392" y="192" xlink:href="#p" />
<use x="392" y="232" xlink:href="#p" />
<use x="392" y="272" xlink:href="#p" />
<use x="392" y="280" xlink:href="#p" />
<use x="392" y="296" xlink:href="#p" />
<use x="392" y="304" xlink:href="#p" />
<use x="392" y="312" xlink:href="#p" />
<use x="392" y="320" xlink:href="#p" />
<use x="392" y="336" xlink:href="#p" />
<use x="392" y="344" xlink:href="#p" />
<use x="392" y="352" xlink:href="#p" />
<use x="392" y="360" xlink:href="#p" />
<use x="392" y="368" xlink:href="#p" />
<use x="392" y="384" xlink:href="#p" />
<use x="392" y="392" xlink:href="#p" />
<use x="400" y="32" xlink:href="#p" />
<use x="400" y="48" xlink:href="#p" />
<use x="400" y="56" xlink:href="#p" />
<use x="400" y="64" xlink:href="#p" />
<use x="400" y="80" xlink:href="#p" />
<use x="400" y="96" xlink:href="#p" />
<use x="400" y="120" xlink:href="#p" />
<use x="400" y="128" xlink:href="#p" />
<use x="400" y="144" xlink:href="#p" />
<use x="400" y="160" xlink:href="#p" />
<use x="400" y="168" xlink:href="#p" />
<use x="400" y="176" xlink:href="#p" />
<use x="400" y="216" xlink:href="#p" />
<use x="400" y="224" xlink:href="#p" />
<use x="400" y="240" xlink:href="#p" />
<use x="400" y="256" xlink:href="#p" />
<use x="400" y="264" xlink:href="#p" />
<use x="400" y="272" xlink:href="#p" />
<use x="400" y="304" xlink:href="#p" />
<use x="400" y="312" xlink:href="#p" />
<use x="400" y="320" xlink:href="#p" />
<use x="400" y="336" xlink:href="#p" />
<use x="400" y="352" xlink:href="#p" />
<use x="400" y="360" xlink:href="#p" />
<use x="400" y="368" xlink:href="#p" />
<use x="400" y="400" xlink:href="#p" />
<use x="400" y="408" xlink:href="#p" />
<use x="400" y="416" xlink:href="#p" />
<use x="408" y="32" xlink:href="#p" />
<use x="408" y="80" xlink:href="#p" />
<use x="408" y="128" xlink:href="#p" />
<use x="408" y="152" xlink:href="#p" />
<use x="408" y="160" xlink:href="#p" />
<use x="408" y="176" xlink:href="#p" />
<use x="408" y="184" xlink:href="#p" />
<use x="408" y="232" xlink:href="#p" />
<use x="408" y="240" xlink:href="#p" />
<use x="408" y="248" xlink:href="#p" />
<use x="408" y="256" xlink:href="#p" />
<use x="408" y="272" xlink:href="#p" />
<use x="408" y="280" xlink:href="#p" />
<use x="408" y="288" xlink:href="#p" />
<use x="408" y="296" xlink:href="#p" />
<use x="408" y="304" xlink:href="#p" />
<use x="408" y="328" xlink:href="#p" />
<use x="408" y="336" xlink:href="#p" />
<use x="408" y="352" xlink:href="#p" />
<use x="408" y="360" xlink:href="#p" />
<use x="408" y="376" xlink:href="#p" />
<use x="408" y="384" xlink:href="#p" />
<use x="408" y="400" xlink:href="#p" />
<use x="408" y="416" xlink:href="#p" />
<use x="416" y="32" xlink:href="#p" />
<use x="416" y="40" xlink:href="#p" />
<use x="416" y="48" xlink:href="#p" />
<use x="416" y="56" xlink:href="#p" />
<use x="416" y="64" xlink:href="#p" />
<use x="416" y="72" xlink:href="#p" />
<use x="416" y="80" xlink:href="#p" />
<use x="416" y="96" xlink:href="#p" />
<use x="416" y="128" xlink:href="#p" />
<use x="416" y="136" xlink:href="#p" />
<use x="416" y="168" xlink:href="#p" />
<use x="416" y="176" xlink:href="#p" />
<use x="416" y="184" xlink:href="#p" />
<use x="416" y="216" xlink:href="#p" />
<use x="416" y="224" xlink:href="#p" />
<use x="416" y="232" xlink:href="#p" />
<use x="416" y="248" xlink:href="#p" />
<use x="416" y="264" xlink:href="#p" />
<use x="416" y="272" xlink:href="#p" />
<use x="416" y="280" xlink:href="#p" />
<use x="416" y="312" xlink:href="#p" />
<use x="416" y="320" xlink:href="#p" />
<use x="416" y="328" xlink:href="#p" />
<use x="416" y="344" xlink:href="#p" />
<use x="416" y="360" xlink:href="#p" />
<use x="416" y="368" xlink:href="#p" />
<use x="416" y="376" xlink:href="#p" />
<use x="416" y="400" xlink:href="#p" />
<use x="416" y="416" xlink:href="#p" />
</g>
</svg>